<?xml version="1.0" encoding="iso-8859-1"?>
<!-- Generator: Adobe Illustrator 17.1.0, SVG Export Plug-In . SVG Version: 6.00 Build 0)  -->
<!DOCTYPE svg PUBLIC "-//W3C//DTD SVG 1.1//EN" "http://www.w3.org/Graphics/SVG/1.1/DTD/svg11.dtd">
<svg version="1.1" id="Capa_1" xmlns="http://www.w3.org/2000/svg" xmlns:xlink="http://www.w3.org/1999/xlink" x="0px" y="0px"
	 viewBox="0 0 365.747 365.747" style="enable-background:new 0 0 365.747 365.747;" xml:space="preserve">
<g>
	<path d="M208.171,224.553c16.758,6.483,27.305,15.438,27.525,23.371c0.101,3.613-1.666,7.314-5.25,10.999
		c-12.511,12.863-42.611,21.506-74.899,21.506c-47.231,0-80.146-17.239-80.146-32.712c0-3.974,2.096-8.041,6.23-12.09
		c15.306-14.99,48.036-21.14,73.76-20.625c4.163,0.048,7.568-3.201,7.654-7.342c0.087-4.141-3.2-7.568-7.342-7.654
		c-35.72-0.752-68.122,8.798-84.568,24.904c-7.022,6.878-10.734,14.765-10.734,22.807c0,13.843,10.67,26.362,30.044,35.251
		c17.515,8.035,40.635,12.461,65.103,12.461c37.205,0,70.025-9.98,85.652-26.048c6.423-6.604,9.705-14.167,9.491-21.873
		c-0.403-14.511-13.929-27.977-37.107-36.945c-3.866-1.494-8.207,0.426-9.701,4.289S204.308,223.058,208.171,224.553z"/>
	<path d="M365.212,96.76c-1.112-2.785-3.775-4.64-6.772-4.717l-46.984-1.211l-1.211-46.983c-0.077-2.997-1.932-5.66-4.717-6.772
		c-2.785-1.108-5.962-0.457-8.084,1.662L255.11,81.072c-1.453,1.454-2.247,3.441-2.193,5.497l1.294,50.182l-36.185,36.185
		c-19.431-4.38-40.612-6.705-62.479-6.705c-40.686,0-79.055,7.977-108.037,22.461C16.872,204.004,0,224.965,0,247.717
		s16.872,43.714,47.51,59.024c28.982,14.484,67.352,22.461,108.037,22.461c40.687,0,79.055-7.977,108.038-22.461
		c30.637-15.311,47.509-36.272,47.509-59.024s-16.872-43.714-47.509-59.025c-8.789-4.392-18.452-8.176-28.77-11.331l32.28-32.28
		l39.374-39.374l34.123,0.88l-27.705,27.706l-19.82-0.511c-4.147-0.094-7.584,3.164-7.69,7.304c-0.107,4.141,3.163,7.584,7.304,7.69
		l23.04,0.594c0.064,0.002,0.129,0.003,0.193,0.003c1.986,0,3.896-0.788,5.304-2.196l42.333-42.333
		C365.67,102.724,366.323,99.545,365.212,96.76z M296.094,247.717c0,36.039-64.362,66.485-140.547,66.485S15,283.757,15,247.717
		s64.362-66.486,140.547-66.486c17.397,0,34.174,1.592,49.712,4.471l-43.229,43.229c-0.015,0.015-0.027,0.031-0.041,0.046
		c-2.143-0.176-4.302-0.265-6.442-0.265c-17.683,0-36.715,5.947-36.715,19.006c0,13.058,19.032,19.005,36.715,19.005
		c17.684,0,36.716-5.947,36.716-19.005c0-6.89-5.301-11.798-12.904-14.9l43.239-43.239
		C265.992,201.046,296.094,223.072,296.094,247.717z M175.992,247.717c-3.124,1.793-10.28,4.005-20.445,4.005
		c-10.164,0-17.32-2.212-20.444-4.005c3.124-1.794,10.28-4.006,20.444-4.006C165.712,243.712,172.868,245.923,175.992,247.717z
		 M267.994,89.402L295.7,61.697l0.844,32.721l-27.706,27.706L267.994,89.402z"/>
</g>
<g>
</g>
<g>
</g>
<g>
</g>
<g>
</g>
<g>
</g>
<g>
</g>
<g>
</g>
<g>
</g>
<g>
</g>
<g>
</g>
<g>
</g>
<g>
</g>
<g>
</g>
<g>
</g>
<g>
</g>
</svg>
