<?xml version="1.0" encoding="iso-8859-1"?>
<!-- Generator: Adobe Illustrator 17.1.0, SVG Export Plug-In . SVG Version: 6.00 Build 0)  -->
<!DOCTYPE svg PUBLIC "-//W3C//DTD SVG 1.1//EN" "http://www.w3.org/Graphics/SVG/1.1/DTD/svg11.dtd">
<svg version="1.1" id="Capa_1" xmlns="http://www.w3.org/2000/svg" xmlns:xlink="http://www.w3.org/1999/xlink" x="0px" y="0px"
	 viewBox="0 0 368.554 368.554" style="enable-background:new 0 0 368.554 368.554;" xml:space="preserve">
<g>
	<path d="M361.054,55.207H227.442c-4.142,0-7.5,3.357-7.5,7.5v121.569v114.071h-35.665H62.687v-27.122
		c0.006-0.179,0.006-0.358,0-0.537v-97.341h63.256h50.833v43.333h-43.333v-20.405c0-4.143-3.358-7.5-7.5-7.5s-7.5,3.357-7.5,7.5
		v27.905c0,4.143,3.358,7.5,7.5,7.5h58.333c4.142,0,7.5-3.357,7.5-7.5v-50.833h9.5c4.142,0,7.5-3.357,7.5-7.5s-3.358-7.5-7.5-7.5
		h-9.5v-61.36v-0.005v-4.09c0-4.143-3.358-7.5-7.5-7.5H7.5c-4.142,0-7.5,3.357-7.5,7.5v212.955c0,4.143,3.358,7.5,7.5,7.5h47.687
		h129.09h43.165h133.612c4.142,0,7.5-3.357,7.5-7.5V62.707C368.554,58.564,365.196,55.207,361.054,55.207z M81.475,100.392
		L15,166.866v-23.18l43.294-43.294H81.475z M15,232.475l32.687-32.687v23.681L15,256.155V232.475z M15,298.347v-20.979
		l32.687-32.686v23.18l-30.485,30.485H15z M47.687,289.076v9.271h-9.271L47.687,289.076z M55.187,158.347
		c-4.142,0-7.5,3.357-7.5,7.5v12.727L15,211.261V188.08l87.688-87.688h23.18l-57.955,57.955H55.187z M170.263,100.392
		l-57.955,57.955h-23.18l57.955-57.955H170.263z M176.777,138.772l-19.575,19.575h-23.68l43.255-43.255V138.772z M37.08,100.392
		L15,122.473v-22.081H37.08z M234.942,298.347V184.276V70.207h118.612v98.974h-68.367c-4.142,0-7.5,3.357-7.5,7.5v87.5
		c0,4.143,3.358,7.5,7.5,7.5h49.09c4.142,0,7.5-3.357,7.5-7.5s-3.358-7.5-7.5-7.5h-41.59v-72.5h60.867v114.167H234.942z"/>
	<path d="M257.232,100.392h42.955c4.142,0,7.5-3.357,7.5-7.5s-3.358-7.5-7.5-7.5h-42.955c-4.142,0-7.5,3.357-7.5,7.5
		S253.09,100.392,257.232,100.392z"/>
	<path d="M307.687,122.514c0-4.143-3.358-7.5-7.5-7.5h-42.955c-4.142,0-7.5,3.357-7.5,7.5s3.358,7.5,7.5,7.5h42.955
		C304.329,130.014,307.687,126.657,307.687,122.514z"/>
</g>
<g>
</g>
<g>
</g>
<g>
</g>
<g>
</g>
<g>
</g>
<g>
</g>
<g>
</g>
<g>
</g>
<g>
</g>
<g>
</g>
<g>
</g>
<g>
</g>
<g>
</g>
<g>
</g>
<g>
</g>
</svg>
