<?xml version="1.0" encoding="iso-8859-1"?>
<!-- Generator: Adobe Illustrator 17.1.0, SVG Export Plug-In . SVG Version: 6.00 Build 0)  -->
<!DOCTYPE svg PUBLIC "-//W3C//DTD SVG 1.1//EN" "http://www.w3.org/Graphics/SVG/1.1/DTD/svg11.dtd">
<svg version="1.1" id="Capa_1" xmlns="http://www.w3.org/2000/svg" xmlns:xlink="http://www.w3.org/1999/xlink" x="0px" y="0px"
	 viewBox="0 0 376.197 376.197" style="enable-background:new 0 0 376.197 376.197;" xml:space="preserve">
<g>
	<path d="M376.197,117.046c0-32.924-26.785-59.709-59.709-59.709s-59.71,26.785-59.71,59.709c0,30.382,22.816,55.519,52.21,59.222
		v47.661c0,44.074-35.857,79.932-79.933,79.932H15v-16.666h226.099c4.143,0,7.5-3.357,7.5-7.5s-3.357-7.5-7.5-7.5H7.5
		c-4.142,0-7.5,3.357-7.5,7.5v31.666c0,4.143,3.358,7.5,7.5,7.5h221.556c52.346,0,94.933-42.586,94.933-94.932v-47.661
		C353.382,172.565,376.197,147.428,376.197,117.046z M316.488,161.756c-24.653,0-44.71-20.057-44.71-44.71
		c0-24.652,20.057-44.709,44.71-44.709c24.652,0,44.709,20.057,44.709,44.709C361.197,141.699,341.141,161.756,316.488,161.756z"/>
	<path d="M328.366,92.771l-17.436,19.238c-2.781,3.068-2.548,7.812,0.521,10.594c1.436,1.301,3.237,1.942,5.034,1.942
		c2.043,0,4.079-0.83,5.56-2.464l17.436-19.238c2.781-3.068,2.548-7.812-0.521-10.594C335.893,89.471,331.149,89.7,328.366,92.771z"
		/>
	<path d="M38.525,256.479h155.046c4.143,0,7.5-3.357,7.5-7.5V127.104c0-4.143-3.357-7.5-7.5-7.5H38.525c-4.142,0-7.5,3.357-7.5,7.5
		v121.875C31.025,253.121,34.383,256.479,38.525,256.479z M46.025,134.604h83.148v35.299h-26.25v-19.804c0-4.143-3.358-7.5-7.5-7.5
		s-7.5,3.357-7.5,7.5v27.304c0,4.143,3.358,7.5,7.5,7.5h41.25c4.142,0,7.5-3.357,7.5-7.5v-42.799h41.898v106.875H46.025V134.604z"/>
</g>
<g>
</g>
<g>
</g>
<g>
</g>
<g>
</g>
<g>
</g>
<g>
</g>
<g>
</g>
<g>
</g>
<g>
</g>
<g>
</g>
<g>
</g>
<g>
</g>
<g>
</g>
<g>
</g>
<g>
</g>
</svg>
