<?xml version="1.0" encoding="iso-8859-1"?>
<!-- Generator: Adobe Illustrator 17.1.0, SVG Export Plug-In . SVG Version: 6.00 Build 0)  -->
<!DOCTYPE svg PUBLIC "-//W3C//DTD SVG 1.1//EN" "http://www.w3.org/Graphics/SVG/1.1/DTD/svg11.dtd">
<svg version="1.1" id="Capa_1" xmlns="http://www.w3.org/2000/svg" xmlns:xlink="http://www.w3.org/1999/xlink" x="0px" y="0px"
	 viewBox="0 0 354.368 354.368" style="enable-background:new 0 0 354.368 354.368;" xml:space="preserve">
<g>
	<path d="M142.421,279.688c-20.589,0-37.34,16.75-37.34,37.34s16.751,37.34,37.34,37.34s37.34-16.75,37.34-37.34
		S163.01,279.688,142.421,279.688z M142.421,339.368c-12.318,0-22.34-10.021-22.34-22.34s10.021-22.34,22.34-22.34
		s22.34,10.021,22.34,22.34S154.74,339.368,142.421,339.368z"/>
	<path d="M290.545,279.688c-20.589,0-37.34,16.75-37.34,37.34s16.751,37.34,37.34,37.34s37.339-16.75,37.339-37.34
		S311.133,279.688,290.545,279.688z M290.545,339.368c-12.318,0-22.34-10.021-22.34-22.34s10.021-22.34,22.34-22.34
		c12.317,0,22.339,10.021,22.339,22.34S302.862,339.368,290.545,339.368z"/>
	<path d="M345.056,257.207H77.679V68.367c0-1.989-0.79-3.897-2.196-5.303L14.616,2.197c-2.931-2.93-7.679-2.928-10.607,0
		c-2.929,2.929-2.929,7.678,0,10.606l58.671,58.67v193.234c0,4.142,3.357,7.5,7.5,7.5h274.877c4.143,0,7.5-3.358,7.5-7.5
		S349.199,257.207,345.056,257.207z"/>
	<path d="M103.762,243.46c4.143,0,7.5-3.358,7.5-7.5V48.155h62.037h70.047v58.223L216.418,87.24c-2.602-1.849-6.088-1.849-8.689,0
		l-26.929,19.138V83.184c0-4.142-3.357-7.5-7.5-7.5s-7.5,3.358-7.5,7.5v37.725c0,2.806,1.566,5.377,4.061,6.665
		c2.493,1.289,5.499,1.075,7.784-0.551l34.429-24.468l34.429,24.468c1.294,0.919,2.815,1.387,4.346,1.387
		c1.175,0,2.355-0.276,3.438-0.835c2.494-1.287,4.061-3.858,4.061-6.665V48.155h54.537V228.46H184.184c-4.143,0-7.5,3.358-7.5,7.5
		s3.357,7.5,7.5,7.5h136.199c4.143,0,7.5-3.358,7.5-7.5V40.655c0-4.142-3.357-7.5-7.5-7.5h-69.537h-77.547h-69.537
		c-4.143,0-7.5,3.358-7.5,7.5V235.96C96.262,240.102,99.62,243.46,103.762,243.46z"/>
	<path d="M290.544,309.524c-1.97,0-3.909,0.81-5.3,2.2c-1.399,1.4-2.2,3.33-2.2,5.31c0,1.97,0.801,3.9,2.2,5.3
		c1.391,1.39,3.32,2.19,5.3,2.19c1.971,0,3.91-0.8,5.301-2.19c1.399-1.4,2.199-3.33,2.199-5.3c0-1.98-0.8-3.91-2.199-5.31
		C294.454,310.334,292.514,309.524,290.544,309.524z"/>
	<path d="M142.424,309.534c-1.98,0-3.91,0.8-5.311,2.19c-1.39,1.4-2.189,3.33-2.189,5.31c0,1.97,0.8,3.9,2.189,5.3
		c1.4,1.39,3.34,2.19,5.311,2.19c1.97,0,3.899-0.8,5.3-2.19c1.399-1.4,2.2-3.33,2.2-5.3c0-1.98-0.801-3.91-2.2-5.31
		C146.334,310.334,144.394,309.534,142.424,309.534z"/>
</g>
<g>
</g>
<g>
</g>
<g>
</g>
<g>
</g>
<g>
</g>
<g>
</g>
<g>
</g>
<g>
</g>
<g>
</g>
<g>
</g>
<g>
</g>
<g>
</g>
<g>
</g>
<g>
</g>
<g>
</g>
</svg>
