<?xml version="1.0" encoding="iso-8859-1"?>
<!-- Generator: Adobe Illustrator 17.1.0, SVG Export Plug-In . SVG Version: 6.00 Build 0)  -->
<!DOCTYPE svg PUBLIC "-//W3C//DTD SVG 1.1//EN" "http://www.w3.org/Graphics/SVG/1.1/DTD/svg11.dtd">
<svg version="1.1" id="Capa_1" xmlns="http://www.w3.org/2000/svg" xmlns:xlink="http://www.w3.org/1999/xlink" x="0px" y="0px"
	 viewBox="0 0 343.169 343.169" style="enable-background:new 0 0 343.169 343.169;" xml:space="preserve">
<g>
	<path d="M208.594,173.948c-2.929,2.929-2.929,7.678,0,10.606c2.929,2.929,7.678,2.929,10.606,0c8.194-8.194,21.527-8.194,29.722,0
		c1.464,1.464,3.384,2.197,5.303,2.197s3.839-0.732,5.303-2.197c2.929-2.929,2.929-7.678,0-10.606
		C245.485,159.905,222.637,159.905,208.594,173.948z"/>
	<path d="M336.181,267.507l-33.493-33.493c-2.929-2.929-7.678-2.929-10.606,0l-6.408,6.408l-4.079-4.079
		c18.358-23.599,16.716-57.821-4.961-79.498c-11.372-11.372-26.49-17.634-42.572-17.634s-31.2,6.262-42.571,17.634
		c-11.372,11.371-17.634,26.49-17.634,42.571s6.262,31.2,17.634,42.572c11.371,11.371,26.49,17.634,42.571,17.634
		c13.553,0,26.412-4.463,36.931-12.669l4.075,4.075l-6.408,6.408c-2.929,2.929-2.929,7.678,0,10.606l33.493,33.493
		c4.513,4.514,10.514,7,16.897,7c6.383,0,12.384-2.486,16.892-6.994l0.24-0.24C345.498,291.984,345.498,276.823,336.181,267.507z
		 M202.096,231.381c-8.538-8.539-13.24-19.891-13.24-31.965s4.702-23.427,13.24-31.965s19.89-13.24,31.965-13.24
		s23.427,4.702,31.965,13.24c17.625,17.625,17.625,46.304,0,63.93c-8.539,8.538-19.891,13.24-31.965,13.24
		S210.634,239.919,202.096,231.381z M325.58,290.689l-0.24,0.24c-1.68,1.68-3.914,2.606-6.29,2.606c-2.376,0-4.61-0.926-6.291-2.606
		l-28.19-28.19l12.815-12.815l28.19,28.19C329.043,281.582,329.043,287.226,325.58,290.689z"/>
	<path d="M251.578,272.708c-4.142,0-7.5,3.358-7.5,7.5v32.314h-68.523v-32.314c0-4.142-3.358-7.5-7.5-7.5H91.023
		c-4.142,0-7.5,3.358-7.5,7.5s3.358,7.5,7.5,7.5h69.532v24.814H15V77.299h68.523v32.314c0,4.142,3.358,7.5,7.5,7.5h77.032
		c4.142,0,7.5-3.358,7.5-7.5V77.299h68.523v41.921c0,4.142,3.358,7.5,7.5,7.5s7.5-3.358,7.5-7.5V69.799
		c0-0.589-0.075-1.158-0.203-1.708c-0.016-0.068-0.034-0.135-0.052-0.203c-0.07-0.267-0.153-0.527-0.251-0.781
		c-0.016-0.043-0.03-0.086-0.047-0.129c-0.12-0.296-0.259-0.582-0.415-0.858c-0.028-0.05-0.06-0.097-0.089-0.146
		c-0.139-0.234-0.291-0.46-0.454-0.677c-0.027-0.036-0.046-0.075-0.074-0.11l-36.374-46.652c-1.421-1.823-3.603-2.888-5.915-2.888
		H98.589c-4.142,0-7.5,3.358-7.5,7.5c0,4.142,3.358,7.5,7.5,7.5h112.952l24.678,31.652h-68.165H91.023H22.858l26.93-34.541
		c2.547-3.266,1.964-7.979-1.303-10.526c-3.268-2.548-7.981-1.963-10.526,1.303L1.585,65.187c-0.027,0.035-0.047,0.074-0.074,0.11
		c-0.163,0.217-0.315,0.442-0.454,0.677c-0.029,0.049-0.061,0.097-0.089,0.146c-0.156,0.276-0.295,0.562-0.415,0.858
		c-0.017,0.042-0.031,0.086-0.047,0.129c-0.098,0.254-0.181,0.515-0.251,0.781c-0.018,0.068-0.036,0.135-0.052,0.203
		C0.075,68.641,0,69.21,0,69.799v250.223c0,4.142,3.358,7.5,7.5,7.5h244.078c4.142,0,7.5-3.358,7.5-7.5v-39.814
		C259.078,276.066,255.72,272.708,251.578,272.708z M160.555,77.299v24.814H98.523V77.299H160.555z"/>
</g>
<g>
</g>
<g>
</g>
<g>
</g>
<g>
</g>
<g>
</g>
<g>
</g>
<g>
</g>
<g>
</g>
<g>
</g>
<g>
</g>
<g>
</g>
<g>
</g>
<g>
</g>
<g>
</g>
<g>
</g>
</svg>
