<?xml version="1.0" encoding="iso-8859-1"?>
<!-- Generator: Adobe Illustrator 17.1.0, SVG Export Plug-In . SVG Version: 6.00 Build 0)  -->
<!DOCTYPE svg PUBLIC "-//W3C//DTD SVG 1.1//EN" "http://www.w3.org/Graphics/SVG/1.1/DTD/svg11.dtd">
<svg version="1.1" id="Capa_1" xmlns="http://www.w3.org/2000/svg" xmlns:xlink="http://www.w3.org/1999/xlink" x="0px" y="0px"
	 viewBox="0 0 335.926 335.926" style="enable-background:new 0 0 335.926 335.926;" xml:space="preserve">
<g>
	<path d="M291.162,90.152H184.657c-4.143,0-7.5,3.357-7.5,7.5s3.357,7.5,7.5,7.5h106.505c16.412,0,29.764,13.352,29.764,29.764
		v49.553H184.74c-4.143,0-7.5,3.357-7.5,7.5s3.357,7.5,7.5,7.5h136.186v41.619H15v-41.619h24.246c4.142,0,7.5-3.357,7.5-7.5
		s-3.358-7.5-7.5-7.5H15v-49.553c0-16.412,13.352-29.764,29.764-29.764c4.142,0,7.5-3.357,7.5-7.5s-3.358-7.5-7.5-7.5
		C20.081,90.152,0,110.233,0,134.916v57.053v56.619v16.982c0,24.683,20.081,44.764,44.764,44.764h246.398
		c24.683,0,44.764-20.081,44.764-44.764v-16.982v-56.619v-57.053C335.926,110.233,315.845,90.152,291.162,90.152z M291.162,295.334
		H44.764C28.352,295.334,15,281.982,15,265.57v-9.482h305.926v9.482C320.926,281.982,307.574,295.334,291.162,295.334z"/>
	<path d="M73.825,221.517h84.553c4.142,0,7.5-3.357,7.5-7.5v-84.553V74.945c0-27.214-22.14-49.354-49.354-49.354h-0.846
		c-27.213,0-49.354,22.14-49.354,49.354v54.519v84.553C66.325,218.159,69.683,221.517,73.825,221.517z M150.878,206.517H81.325
		v-69.553h69.553V206.517z M81.325,74.945c0-18.942,15.411-34.354,34.354-34.354h0.846c18.942,0,34.354,15.411,34.354,34.354v47.019
		H81.325V74.945z"/>
	<path d="M108.706,179.24h14.791c4.142,0,7.5-3.357,7.5-7.5s-3.358-7.5-7.5-7.5h-14.791c-4.142,0-7.5,3.357-7.5,7.5
		S104.564,179.24,108.706,179.24z"/>
</g>
<g>
</g>
<g>
</g>
<g>
</g>
<g>
</g>
<g>
</g>
<g>
</g>
<g>
</g>
<g>
</g>
<g>
</g>
<g>
</g>
<g>
</g>
<g>
</g>
<g>
</g>
<g>
</g>
<g>
</g>
</svg>
