<?xml version="1.0" encoding="iso-8859-1"?>
<!-- Generator: Adobe Illustrator 17.1.0, SVG Export Plug-In . SVG Version: 6.00 Build 0)  -->
<!DOCTYPE svg PUBLIC "-//W3C//DTD SVG 1.1//EN" "http://www.w3.org/Graphics/SVG/1.1/DTD/svg11.dtd">
<svg version="1.1" id="Capa_1" xmlns="http://www.w3.org/2000/svg" xmlns:xlink="http://www.w3.org/1999/xlink" x="0px" y="0px"
	 viewBox="0 0 351.03 351.03" style="enable-background:new 0 0 351.03 351.03;" xml:space="preserve">
<g>
	<path d="M312.375,47.637h-196.21c-21.314,0-38.655,17.34-38.655,38.654v9.638c0,4.143,3.358,7.5,7.5,7.5s7.5-3.357,7.5-7.5v-9.638
		c0-13.043,10.611-23.654,23.655-23.654h196.21c13.043,0,23.655,10.611,23.655,23.654v28.114H234.866h-2.337H38.655
		C17.34,114.406,0,131.746,0,153.06v111.679c0,21.314,17.34,38.654,38.655,38.654h196.211c21.314,0,38.655-17.34,38.655-38.654
		v-88.871h62.51v22.103c0,13.043-10.611,23.654-23.655,23.654h-21.142c-4.142,0-7.5,3.357-7.5,7.5s3.358,7.5,7.5,7.5h21.142
		c21.314,0,38.655-17.34,38.655-38.654V86.292C351.03,64.977,333.69,47.637,312.375,47.637z M292.929,160.868h-16.636
		c0.712-0.353,1.382-0.819,1.975-1.412l30.05-30.05h15.81l-30.165,30.165C293.561,159.971,293.22,160.408,292.929,160.868z
		 M272.451,144.058c-1.297-5.414-3.734-10.387-7.046-14.652h21.698L272.451,144.058z M258.521,264.739
		c0,13.043-10.611,23.654-23.655,23.654H38.655C25.611,288.393,15,277.782,15,264.739V153.06c0-13.043,10.611-23.654,23.655-23.654
		h193.874h2.337c13.043,0,23.655,10.611,23.655,23.654V264.739z M313.879,160.868l19.815-19.815v19.815H313.879z"/>
	<path d="M100.317,226.015c-4.142,0-7.5,3.357-7.5,7.5v23.443H46.41v-36.66h32.104c4.142,0,7.5-3.357,7.5-7.5s-3.358-7.5-7.5-7.5
		H38.91c-4.142,0-7.5,3.357-7.5,7.5v51.66c0,4.143,3.358,7.5,7.5,7.5h61.407c4.142,0,7.5-3.357,7.5-7.5v-30.943
		C107.817,229.373,104.459,226.015,100.317,226.015z"/>
	<path d="M231.905,221.625H144.18c-4.142,0-7.5,3.357-7.5,7.5s3.358,7.5,7.5,7.5h87.725c4.142,0,7.5-3.357,7.5-7.5
		S236.047,221.625,231.905,221.625z"/>
	<path d="M231.905,256.958H144.18c-4.142,0-7.5,3.357-7.5,7.5s3.358,7.5,7.5,7.5h87.725c4.142,0,7.5-3.357,7.5-7.5
		S236.047,256.958,231.905,256.958z"/>
</g>
<g>
</g>
<g>
</g>
<g>
</g>
<g>
</g>
<g>
</g>
<g>
</g>
<g>
</g>
<g>
</g>
<g>
</g>
<g>
</g>
<g>
</g>
<g>
</g>
<g>
</g>
<g>
</g>
<g>
</g>
</svg>
