<?xml version="1.0" encoding="iso-8859-1"?>
<!-- Generator: Adobe Illustrator 17.1.0, SVG Export Plug-In . SVG Version: 6.00 Build 0)  -->
<!DOCTYPE svg PUBLIC "-//W3C//DTD SVG 1.1//EN" "http://www.w3.org/Graphics/SVG/1.1/DTD/svg11.dtd">
<svg version="1.1" id="Capa_1" xmlns="http://www.w3.org/2000/svg" xmlns:xlink="http://www.w3.org/1999/xlink" x="0px" y="0px"
	 viewBox="0 0 365.438 365.438" style="enable-background:new 0 0 365.438 365.438;" xml:space="preserve">
<g>
	<path d="M197.65,262.961c-14.277,0-25.893,11.616-25.893,25.894c0,4.142,3.358,7.5,7.5,7.5s7.5-3.358,7.5-7.5
		c0-6.007,4.887-10.894,10.893-10.894c6.007,0,10.894,4.887,10.894,10.894s-4.887,10.894-10.894,10.894c-4.142,0-7.5,3.358-7.5,7.5
		s3.358,7.5,7.5,7.5c14.278,0,25.894-11.616,25.894-25.894S211.928,262.961,197.65,262.961z"/>
	<path d="M351.379,179.397l-109.757,63.859c-11.408-11.004-26.907-17.794-43.972-17.794c-6.216,0-12.22,0.915-17.901,2.59
		L68.414,31.516c-10.11-17.51-32.578-23.53-50.088-13.421C0.817,28.204-5.204,50.674,4.905,68.183l12.99-7.5
		c-5.974-10.346-2.416-23.624,7.931-29.597c10.349-5.973,23.625-2.415,29.567,7.877l110.499,195.062
		c-18.895,10.987-31.635,31.442-31.635,54.83c0,34.956,28.438,63.394,63.393,63.394s63.394-28.438,63.394-63.394
		c0-12.434-3.612-24.033-9.822-33.831l107.701-62.662L351.379,179.397z M197.65,337.248c-26.684,0-48.393-21.709-48.393-48.394
		s21.709-48.394,48.393-48.394s48.394,21.709,48.394,48.394S224.334,337.248,197.65,337.248z"/>
	<path d="M365.438,158.912l-41.541-71.951c-2.071-3.587-6.658-4.817-10.245-2.745c-3.587,2.071-4.816,6.658-2.745,10.245
		l34.041,58.96l-97.969,56.563l-56.563-97.969l104.464-60.312c3.587-2.071,4.816-6.658,2.745-10.245
		c-2.071-3.587-6.658-4.816-10.245-2.745l-117.455,67.813l71.563,123.95L365.438,158.912z"/>
	<path d="M294.135,114.76c1.072-4.001-1.302-8.114-5.303-9.186l-36.314-9.731c-0.237-0.063-0.477-0.115-0.719-0.155
		c-0.046-0.008-0.092-0.01-0.138-0.016c-0.197-0.029-0.394-0.054-0.594-0.068c-0.033-0.002-0.067,0-0.1-0.002
		c-0.212-0.011-0.424-0.017-0.636-0.01c-0.016,0-0.031,0.003-0.047,0.004c-0.228,0.009-0.457,0.026-0.685,0.056
		c-0.003,0-0.007,0.001-0.01,0.002c-0.238,0.031-0.474,0.074-0.71,0.129c-0.003,0.001-0.005,0.002-0.007,0.002
		c-0.233,0.055-0.465,0.12-0.694,0.198c-0.042,0.014-0.083,0.034-0.125,0.049c-0.188,0.067-0.375,0.137-0.559,0.22
		c-0.227,0.102-0.449,0.216-0.667,0.341c-0.217,0.125-0.427,0.261-0.629,0.407c-0.164,0.118-0.318,0.245-0.471,0.374
		c-0.034,0.029-0.071,0.054-0.104,0.083c-0.174,0.153-0.339,0.314-0.496,0.481c-0.009,0.01-0.02,0.019-0.029,0.029
		c-0.161,0.172-0.312,0.352-0.455,0.537c-0.006,0.007-0.012,0.014-0.018,0.021c-0.135,0.176-0.26,0.359-0.378,0.546
		c-0.013,0.02-0.028,0.039-0.04,0.059c-0.108,0.175-0.206,0.355-0.299,0.538c-0.018,0.036-0.04,0.07-0.058,0.106
		c-0.087,0.176-0.162,0.357-0.234,0.538c-0.018,0.046-0.041,0.09-0.059,0.137c-0.086,0.23-0.162,0.463-0.225,0.7l-9.73,36.315
		c-1.072,4.001,1.303,8.113,5.304,9.186c0.65,0.174,1.303,0.257,1.946,0.257c3.311,0,6.342-2.21,7.24-5.561l5.044-18.826
		l25.162,43.581c1.389,2.406,3.91,3.751,6.502,3.751c1.272,0,2.562-0.324,3.743-1.006c3.587-2.071,4.816-6.658,2.745-10.245
		l-25.161-43.581l18.825,5.045C288.948,121.133,293.062,118.761,294.135,114.76z"/>
</g>
<g>
</g>
<g>
</g>
<g>
</g>
<g>
</g>
<g>
</g>
<g>
</g>
<g>
</g>
<g>
</g>
<g>
</g>
<g>
</g>
<g>
</g>
<g>
</g>
<g>
</g>
<g>
</g>
<g>
</g>
</svg>
