<?xml version="1.0" encoding="iso-8859-1"?>
<!-- Generator: Adobe Illustrator 17.1.0, SVG Export Plug-In . SVG Version: 6.00 Build 0)  -->
<!DOCTYPE svg PUBLIC "-//W3C//DTD SVG 1.1//EN" "http://www.w3.org/Graphics/SVG/1.1/DTD/svg11.dtd">
<svg version="1.1" id="Capa_1" xmlns="http://www.w3.org/2000/svg" xmlns:xlink="http://www.w3.org/1999/xlink" x="0px" y="0px"
	 viewBox="0 0 357.951 357.951" style="enable-background:new 0 0 357.951 357.951;" xml:space="preserve">
<g>
	<path d="M349.61,191.019l-60.036-36.589c-1.176-0.717-2.526-1.096-3.903-1.096h-43.618V87.654c0-4.142-3.357-7.5-7.5-7.5h-48.077
		V56.501c12.226-3.308,21.25-14.493,21.25-27.751c0-15.853-12.897-28.75-28.75-28.75s-28.75,12.897-28.75,28.75
		c0,13.258,9.024,24.443,21.25,27.751v23.653h-58.5c-4.143,0-7.5,3.358-7.5,7.5s3.357,7.5,7.5,7.5h114.077v58.179H123.398H74.386
		l-47.73-29.09l49.528-30.185c3.537-2.156,4.656-6.771,2.501-10.308c-2.156-3.537-6.772-4.656-10.308-2.501L8.341,117.839
		c-2.233,1.361-3.597,3.789-3.597,6.404s1.363,5.043,3.597,6.404l60.036,36.59c1.176,0.717,2.526,1.096,3.903,1.096h43.618v65.679
		c0,4.142,3.357,7.5,7.5,7.5h48.077v83.463c0,4.142,3.357,7.5,7.5,7.5s7.5-3.358,7.5-7.5v-83.463h50.5c4.143,0,7.5-3.358,7.5-7.5
		s-3.357-7.5-7.5-7.5H130.898v-58.179h103.654h49.013l47.73,29.089l-49.528,30.186c-3.537,2.156-4.656,6.771-2.501,10.308
		c1.413,2.318,3.882,3.598,6.411,3.598c1.33,0,2.678-0.354,3.896-1.097l60.036-36.59c2.233-1.361,3.597-3.789,3.597-6.404
		C353.207,194.807,351.844,192.38,349.61,191.019z M165.226,28.75c0-7.582,6.168-13.75,13.75-13.75s13.75,6.168,13.75,13.75
		s-6.168,13.75-13.75,13.75S165.226,36.332,165.226,28.75z"/>
	<path d="M254.083,342.951H103.868c-4.143,0-7.5,3.358-7.5,7.5s3.357,7.5,7.5,7.5h150.215c4.143,0,7.5-3.358,7.5-7.5
		S258.226,342.951,254.083,342.951z"/>
</g>
<g>
</g>
<g>
</g>
<g>
</g>
<g>
</g>
<g>
</g>
<g>
</g>
<g>
</g>
<g>
</g>
<g>
</g>
<g>
</g>
<g>
</g>
<g>
</g>
<g>
</g>
<g>
</g>
<g>
</g>
</svg>
