<?xml version="1.0" encoding="iso-8859-1"?>
<!-- Generator: Adobe Illustrator 17.1.0, SVG Export Plug-In . SVG Version: 6.00 Build 0)  -->
<!DOCTYPE svg PUBLIC "-//W3C//DTD SVG 1.1//EN" "http://www.w3.org/Graphics/SVG/1.1/DTD/svg11.dtd">
<svg version="1.1" id="Capa_1" xmlns="http://www.w3.org/2000/svg" xmlns:xlink="http://www.w3.org/1999/xlink" x="0px" y="0px"
	 viewBox="0 0 370.99 370.99" style="enable-background:new 0 0 370.99 370.99;" xml:space="preserve">
<path d="M364.936,178.136l-118.137-23.218l41.604-61.923c1.999-2.976,1.613-6.951-0.922-9.486c-2.536-2.534-6.51-2.921-9.486-0.922
	l-67.479,45.338c-3.438,2.311-4.353,6.97-2.043,10.408c2.31,3.439,6.971,4.354,10.408,2.043l35.759-24.025l-23.805,35.43
	l-38.894-7.644c-0.626-0.123-1.247-0.154-1.856-0.121c-1.508-0.166-3.039-0.258-4.59-0.258c-7.289,0-14.145,1.883-20.115,5.181
	l20.115-102.494l11.872,60.49c0.798,4.065,4.743,6.712,8.804,5.915c4.064-0.798,6.713-4.739,5.915-8.804l-19.231-97.99
	C192.164,2.537,189.081,0,185.495,0s-6.669,2.537-7.36,6.056l-23.188,118.155L92.995,82.586c-2.975-1.998-6.95-1.613-9.486,0.922
	c-2.535,2.535-2.921,6.511-0.922,9.486l41.624,61.953L6.056,178.136C2.538,178.826,0,181.91,0,185.495s2.538,6.669,6.056,7.359
	l118.155,23.189l-41.624,61.953c-1.995,2.97-1.615,6.937,0.909,9.473c1.451,1.458,3.377,2.21,5.319,2.21
	c1.437,0,2.882-0.411,4.149-1.254l50.683-33.684c3.45-2.292,4.388-6.947,2.095-10.397c-2.292-3.448-6.947-4.388-10.398-2.095
	l-19.275,12.81l24.108-35.882l9.727,1.909l28.231,143.849c0.691,3.519,3.774,6.056,7.36,6.056s6.669-2.537,7.36-6.056
	l23.188-118.155l61.952,41.625c1.274,0.855,2.731,1.274,4.18,1.274c1.935,0,3.856-0.747,5.306-2.196
	c2.535-2.535,2.921-6.511,0.922-9.486l-41.625-61.953l118.155-23.189c3.518-0.69,6.055-3.773,6.056-7.358
	S368.454,178.827,364.936,178.136z M185.495,158.757c14.744,0,26.738,11.995,26.738,26.738s-11.995,26.738-26.738,26.738
	s-26.738-11.995-26.738-26.738S170.751,158.757,185.495,158.757z M116.35,116.35l35.464,23.827l-1.909,9.727l-9.727,1.909
	L116.35,116.35z M148.938,165.379c-3.298,5.97-5.181,12.826-5.181,20.116s1.883,14.146,5.181,20.116L46.444,185.495L148.938,165.379
	z M185.495,324.546L165.38,222.052c5.97,3.298,12.826,5.181,20.115,5.181s14.145-1.883,20.115-5.181L185.495,324.546z
	 M254.641,254.641l-35.464-23.827l1.909-9.727l9.727-1.909L254.641,254.641z M222.052,205.611c3.298-5.97,5.182-12.826,5.182-20.116
	c0-7.308-1.893-14.179-5.206-20.159l102.546,20.154L222.052,205.611z"/>
<g>
</g>
<g>
</g>
<g>
</g>
<g>
</g>
<g>
</g>
<g>
</g>
<g>
</g>
<g>
</g>
<g>
</g>
<g>
</g>
<g>
</g>
<g>
</g>
<g>
</g>
<g>
</g>
<g>
</g>
</svg>
