<?xml version="1.0" encoding="iso-8859-1"?>
<!-- Generator: Adobe Illustrator 17.1.0, SVG Export Plug-In . SVG Version: 6.00 Build 0)  -->
<!DOCTYPE svg PUBLIC "-//W3C//DTD SVG 1.1//EN" "http://www.w3.org/Graphics/SVG/1.1/DTD/svg11.dtd">
<svg version="1.1" id="Capa_1" xmlns="http://www.w3.org/2000/svg" xmlns:xlink="http://www.w3.org/1999/xlink" x="0px" y="0px"
	 viewBox="0 0 338.083 338.083" style="enable-background:new 0 0 338.083 338.083;" xml:space="preserve">
<path d="M277.336,143.708l42.859-39.929c2.255-2.101,2.995-5.367,1.866-8.235s-3.896-4.753-6.979-4.753h-93.75V52.875
	c0-4.142-3.357-7.5-7.5-7.5H72.385c2.508-4.421,3.948-9.523,3.948-14.958C76.333,13.645,62.688,0,45.916,0S15.5,13.645,15.5,30.417
	c0,16.772,13.645,30.417,30.417,30.417c1.782,0,3.526-0.163,5.225-0.458h155.192v75.833H53.416V87.5c0-4.142-3.358-7.5-7.5-7.5
	s-7.5,3.358-7.5,7.5v243.083c0,4.142,3.358,7.5,7.5,7.5s7.5-3.358,7.5-7.5V151.208h86.25v37.917c0,4.142,3.358,7.5,7.5,7.5h64.875
	c4.143,0,7.5-3.358,7.5-7.5s-3.357-7.5-7.5-7.5h-57.375v-30.417h59.167c4.143,0,7.5-3.358,7.5-7.5v-37.917h74.697l-34.81,32.429
	c-1.522,1.419-2.388,3.407-2.388,5.488s0.865,4.069,2.388,5.488l34.81,32.429h-37.989c-4.143,0-7.5,3.358-7.5,7.5s3.357,7.5,7.5,7.5
	h57.042c3.082,0,5.85-1.885,6.979-4.753s0.389-6.134-1.866-8.235L277.336,143.708z M30.5,30.417C30.5,21.916,37.416,15,45.916,15
	s15.417,6.916,15.417,15.417c0,8.501-6.916,15.417-15.417,15.417S30.5,38.917,30.5,30.417z"/>
<g>
</g>
<g>
</g>
<g>
</g>
<g>
</g>
<g>
</g>
<g>
</g>
<g>
</g>
<g>
</g>
<g>
</g>
<g>
</g>
<g>
</g>
<g>
</g>
<g>
</g>
<g>
</g>
<g>
</g>
</svg>
