<?xml version="1.0" encoding="iso-8859-1"?>
<!-- Generator: Adobe Illustrator 17.1.0, SVG Export Plug-In . SVG Version: 6.00 Build 0)  -->
<!DOCTYPE svg PUBLIC "-//W3C//DTD SVG 1.1//EN" "http://www.w3.org/Graphics/SVG/1.1/DTD/svg11.dtd">
<svg version="1.1" id="Capa_1" xmlns="http://www.w3.org/2000/svg" xmlns:xlink="http://www.w3.org/1999/xlink" x="0px" y="0px"
	 viewBox="0 0 325.049 325.049" style="enable-background:new 0 0 325.049 325.049;" xml:space="preserve">
<g>
	<path d="M293.532,136.128c4.142,0,7.5-3.357,7.5-7.5v-26.667c0-4.143-3.358-7.5-7.5-7.5h-26.59V41.667h24.09
		c4.142,0,7.5-3.357,7.5-7.5V7.5c0-4.143-3.358-7.5-7.5-7.5H31.517c-4.142,0-7.5,3.357-7.5,7.5v26.667c0,4.143,3.358,7.5,7.5,7.5
		h34.63h185.795v60.294v26.667v67.029c-0.025,0.251-0.039,0.506-0.039,0.764v26.667c0,0.258,0.013,0.513,0.039,0.764v59.529H122.524
		c-4.142,0-7.5,3.357-7.5,7.5s3.358,7.5,7.5,7.5h161.008v11.667H39.017v-11.667h39.508c4.142,0,7.5-3.357,7.5-7.5
		s-3.358-7.5-7.5-7.5h-4.877v-60.294v-26.667V70.524c0-4.143-3.358-7.5-7.5-7.5s-7.5,3.357-7.5,7.5v23.937h-27.13
		c-4.142,0-7.5,3.357-7.5,7.5v26.667c0,4.143,3.358,7.5,7.5,7.5h27.13v52.793h-27.13c-4.142,0-7.5,3.357-7.5,7.5v26.667
		c0,4.143,3.358,7.5,7.5,7.5h27.13v52.794h-27.13c-4.142,0-7.5,3.357-7.5,7.5v26.667c0,4.143,3.358,7.5,7.5,7.5h259.516
		c4.142,0,7.5-3.357,7.5-7.5v-26.667c0-4.143-3.358-7.5-7.5-7.5h-24.09v-52.794h26.59c4.142,0,7.5-3.357,7.5-7.5v-26.667
		c0-4.143-3.358-7.5-7.5-7.5h-26.59v-52.793H293.532z M66.147,26.667h-27.13V15h244.516v11.667h-24.09H66.147z M56.997,121.128
		h-17.98v-11.667h17.98V121.128z M39.017,215.588v-11.667h19.63v11.667H39.017z M286.032,109.461v11.667h-19.09v-11.667H286.032z
		 M286.032,203.921v11.667h-19.09v-11.667H286.032z"/>
	<path d="M222.769,162.524c0,4.143,3.358,7.5,7.5,7.5s7.5-3.357,7.5-7.5c0-41.341-33.633-74.974-74.974-74.974
		s-74.974,33.633-74.974,74.974s33.633,74.974,74.974,74.974c26.542,0,51.36-14.25,64.769-37.188c2.09-3.576,0.886-8.17-2.69-10.26
		c-3.576-2.092-8.168-0.886-10.26,2.689c-10.729,18.356-30.585,29.759-51.819,29.759c-33.07,0-59.974-26.904-59.974-59.974
		s26.904-59.974,59.974-59.974C195.864,102.551,222.769,129.455,222.769,162.524z"/>
	<path d="M157.613,113.991c-1.27,1.214-31.087,30.093-31.087,62.875c0,19.999,16.271,36.27,36.27,36.27s36.269-16.271,36.269-36.27
		c0-31.449-29.703-61.494-30.967-62.758C165.213,111.228,160.558,111.176,157.613,113.991z M170.941,141.54
		c5.986,8.969,13.123,22.378,13.123,35.326c0,11.729-9.541,21.27-21.269,21.27s-21.27-9.541-21.27-21.27
		c0-18.874,13.468-37.306,21.185-46.317C165.082,133.391,168.009,137.146,170.941,141.54z"/>
</g>
<g>
</g>
<g>
</g>
<g>
</g>
<g>
</g>
<g>
</g>
<g>
</g>
<g>
</g>
<g>
</g>
<g>
</g>
<g>
</g>
<g>
</g>
<g>
</g>
<g>
</g>
<g>
</g>
<g>
</g>
</svg>
