<?xml version="1.0" encoding="iso-8859-1"?>
<!-- Generator: Adobe Illustrator 17.1.0, SVG Export Plug-In . SVG Version: 6.00 Build 0)  -->
<!DOCTYPE svg PUBLIC "-//W3C//DTD SVG 1.1//EN" "http://www.w3.org/Graphics/SVG/1.1/DTD/svg11.dtd">
<svg version="1.1" id="Capa_1" xmlns="http://www.w3.org/2000/svg" xmlns:xlink="http://www.w3.org/1999/xlink" x="0px" y="0px"
	 viewBox="0 0 286.616 286.616" style="enable-background:new 0 0 286.616 286.616;" xml:space="preserve">
<g>
	<path d="M260.351,7.5c0-4.142-3.357-7.5-7.5-7.5H33.765c-4.143,0-7.5,3.358-7.5,7.5s3.357,7.5,7.5,7.5h86.769L140,69.153
		c0.826,2.298,2.719,4.05,5.074,4.696c2.354,0.645,4.877,0.105,6.76-1.451L172.5,55.327l15.667,41.442
		c1.135,3.001,3.987,4.85,7.017,4.85c0.882,0,1.778-0.156,2.651-0.486c3.874-1.465,5.828-5.793,4.363-9.668l-19.375-51.25
		c-0.856-2.264-2.752-3.976-5.092-4.597c-2.338-0.62-4.834-0.075-6.7,1.467l-20.524,16.955L136.474,15h108.698
		c-3.164,65.767-47.644,118.083-101.863,118.083c-42.452,0-80.911-32.929-95.7-81.94c-1.198-3.967-5.384-6.209-9.348-5.014
		c-3.965,1.197-6.21,5.381-5.014,9.347c8.059,26.702,22.5,49.609,41.764,66.246c17.939,15.491,38.824,24.398,60.798,26.055v131.34
		c0,4.142,3.357,7.5,7.5,7.5c0.169,0,0.334-0.014,0.5-0.025c0.166,0.011,0.331,0.025,0.5,0.025h50.875c4.143,0,7.5-3.358,7.5-7.5
		s-3.357-7.5-7.5-7.5h-44.375v-123.83C211.864,143.124,260.351,81.991,260.351,7.5z"/>
	<path d="M115.308,271.616H91.433c-4.143,0-7.5,3.358-7.5,7.5s3.357,7.5,7.5,7.5h23.875c4.143,0,7.5-3.358,7.5-7.5
		S119.451,271.616,115.308,271.616z"/>
</g>
<g>
</g>
<g>
</g>
<g>
</g>
<g>
</g>
<g>
</g>
<g>
</g>
<g>
</g>
<g>
</g>
<g>
</g>
<g>
</g>
<g>
</g>
<g>
</g>
<g>
</g>
<g>
</g>
<g>
</g>
</svg>
