<?xml version="1.0" encoding="iso-8859-1"?>
<!-- Generator: Adobe Illustrator 17.1.0, SVG Export Plug-In . SVG Version: 6.00 Build 0)  -->
<!DOCTYPE svg PUBLIC "-//W3C//DTD SVG 1.1//EN" "http://www.w3.org/Graphics/SVG/1.1/DTD/svg11.dtd">
<svg version="1.1" id="Capa_1" xmlns="http://www.w3.org/2000/svg" xmlns:xlink="http://www.w3.org/1999/xlink" x="0px" y="0px"
	 viewBox="0 0 365.207 365.207" style="enable-background:new 0 0 365.207 365.207;" xml:space="preserve">
<g>
	<path d="M315.994,176.638l-18.155-30.845l6.179-10.759c14.033-24.436,9.918-55.417-10.007-75.343l-0.634-0.634
		c-21.261-21.261-49.093-33.568-78.916-35.024C211.233,10.277,198.869,0,184.142,0h-3.076c-14.727,0-27.091,10.277-30.319,24.034
		C120.923,25.49,93.091,37.796,71.83,59.058l-0.634,0.634c-19.925,19.926-24.041,50.907-10.007,75.342l6.179,10.76l-18.155,30.845
		c-6.182,10.503-6.262,23.091-0.212,33.671c5.033,8.803,13.42,14.639,23.114,16.356c0.766,36.213,11.941,70.186,31.67,96.041
		c20.913,27.407,48.904,42.501,78.819,42.501c52.969,0,98.623-48.576,108.556-115.503c0.608-4.097-2.221-7.911-6.318-8.52
		c-4.101-0.614-7.912,2.221-8.52,6.318c-8.832,59.511-48.246,102.704-93.718,102.704c-51.541,0-93.673-54.771-95.468-123.002
		h199.946c12.188,0,23.075-6.316,29.124-16.896C322.256,199.729,322.176,187.141,315.994,176.638z M181.065,15h3.076
		c6.294,0,11.759,3.62,14.422,8.888h-31.921C169.306,18.62,174.771,15,181.065,15z M303.185,202.863
		c-3.345,5.85-9.364,9.342-16.103,9.342H78.125c-6.738,0-12.758-3.492-16.103-9.342s-3.301-12.81,0.117-18.616l18.192-30.907
		h158.273c4.142,0,7.5-3.357,7.5-7.5s-3.358-7.5-7.5-7.5H80.385l-6.188-10.776c-10.667-18.572-7.539-42.12,7.606-57.265l0.634-0.634
		c19.847-19.848,46.235-30.777,74.304-30.777h0.677h50.373h0.677c28.069,0,54.457,10.93,74.304,30.777l0.634,0.634
		c15.145,15.145,18.272,38.692,7.606,57.266l-8.272,14.405c0,0,0,0,0,0l-0.078,0.136c-0.034,0.059-0.059,0.12-0.091,0.179
		c-0.075,0.14-0.15,0.28-0.216,0.424c-0.048,0.105-0.089,0.21-0.132,0.316c-0.047,0.116-0.094,0.231-0.135,0.349
		c-0.045,0.128-0.083,0.257-0.12,0.387c-0.029,0.1-0.058,0.2-0.083,0.301c-0.034,0.139-0.062,0.279-0.087,0.419
		c-0.018,0.098-0.036,0.195-0.051,0.294c-0.02,0.137-0.033,0.274-0.045,0.411c-0.01,0.108-0.019,0.216-0.023,0.325
		c-0.005,0.124-0.006,0.247-0.005,0.371c0.001,0.124,0.002,0.248,0.009,0.372c0.006,0.108,0.016,0.216,0.027,0.323
		c0.013,0.137,0.029,0.274,0.05,0.411c0.015,0.098,0.034,0.194,0.053,0.291c0.028,0.141,0.057,0.281,0.093,0.421
		c0.025,0.099,0.055,0.197,0.085,0.295c0.039,0.131,0.079,0.261,0.126,0.391c0.041,0.115,0.089,0.227,0.136,0.34
		c0.045,0.108,0.089,0.216,0.139,0.323c0.066,0.139,0.14,0.274,0.214,0.409c0.034,0.062,0.062,0.126,0.098,0.188l20.367,34.603
		C306.485,190.054,306.529,197.014,303.185,202.863z"/>
	<path d="M149.073,251.773c1.4-1.4,2.2-3.33,2.2-5.3c0-1.98-0.8-3.91-2.2-5.311c-1.39-1.39-3.33-2.189-5.3-2.189
		c-1.98,0-3.91,0.8-5.31,2.189c-1.39,1.4-2.19,3.33-2.19,5.311c0,1.97,0.8,3.91,2.19,5.3c1.4,1.399,3.33,2.2,5.31,2.2
		C145.743,253.974,147.673,253.173,149.073,251.773z"/>
	<path d="M226.743,241.163c-1.4-1.39-3.33-2.189-5.31-2.189c-1.97,0-3.9,0.8-5.3,2.189c-1.4,1.4-2.2,3.33-2.2,5.311
		c0,1.97,0.8,3.899,2.2,5.3c1.4,1.399,3.33,2.2,5.3,2.2c1.98,0,3.91-0.801,5.31-2.2c1.39-1.4,2.19-3.33,2.19-5.3
		C228.933,244.493,228.133,242.563,226.743,241.163z"/>
	<path d="M218.24,103.251c0.114-0.146,0.227-0.292,0.33-0.446c0.028-0.041,0.05-0.085,0.077-0.127
		c0.106-0.165,0.209-0.331,0.301-0.504c0.017-0.031,0.029-0.063,0.045-0.094c0.096-0.186,0.188-0.375,0.269-0.57
		c0.009-0.022,0.015-0.044,0.024-0.066c0.082-0.204,0.159-0.411,0.223-0.623c0.008-0.025,0.012-0.052,0.02-0.077
		c0.061-0.208,0.116-0.418,0.159-0.632c0.012-0.06,0.017-0.122,0.028-0.182c0.031-0.18,0.063-0.361,0.081-0.545
		c0.025-0.248,0.038-0.497,0.038-0.749s-0.013-0.501-0.038-0.749c-0.018-0.185-0.05-0.365-0.081-0.545
		c-0.011-0.06-0.016-0.122-0.028-0.182c-0.043-0.215-0.098-0.425-0.159-0.632c-0.007-0.025-0.012-0.052-0.02-0.077
		c-0.065-0.213-0.141-0.421-0.224-0.625c-0.008-0.021-0.015-0.043-0.023-0.064c-0.081-0.195-0.173-0.384-0.269-0.57
		c-0.016-0.031-0.029-0.063-0.045-0.094c-0.093-0.173-0.196-0.339-0.301-0.504c-0.027-0.042-0.049-0.086-0.077-0.127
		c-0.103-0.154-0.216-0.3-0.33-0.446c-0.037-0.048-0.07-0.098-0.109-0.145c-0.142-0.173-0.294-0.338-0.451-0.498
		c-0.015-0.015-0.027-0.031-0.042-0.046L194.538,70.23c-2.929-2.928-7.678-2.928-10.606,0c-2.929,2.93-2.929,7.678,0,10.607
		l10.298,10.298h-41.359c-4.142,0-7.5,3.357-7.5,7.5s3.358,7.5,7.5,7.5h41.359l-10.299,10.299c-2.929,2.93-2.929,7.678,0,10.607
		c1.464,1.464,3.384,2.196,5.303,2.196s3.839-0.732,5.303-2.196l23.102-23.103c0.015-0.015,0.027-0.031,0.042-0.046
		c0.157-0.16,0.308-0.325,0.451-0.498C218.17,103.349,218.203,103.298,218.24,103.251z"/>
	<path d="M182.604,337.066c24.443,0,44.329-21.028,44.329-46.876c0-4.143-3.358-7.5-7.5-7.5h-73.658c-4.142,0-7.5,3.357-7.5,7.5
		C138.275,316.038,158.161,337.066,182.604,337.066z M211.113,297.69c-3.111,13.97-14.713,24.376-28.509,24.376
		c-13.796,0-25.397-10.406-28.509-24.376H211.113z"/>
</g>
<g>
</g>
<g>
</g>
<g>
</g>
<g>
</g>
<g>
</g>
<g>
</g>
<g>
</g>
<g>
</g>
<g>
</g>
<g>
</g>
<g>
</g>
<g>
</g>
<g>
</g>
<g>
</g>
<g>
</g>
</svg>
