<?xml version="1.0" encoding="iso-8859-1"?>
<!-- Generator: Adobe Illustrator 17.1.0, SVG Export Plug-In . SVG Version: 6.00 Build 0)  -->
<!DOCTYPE svg PUBLIC "-//W3C//DTD SVG 1.1//EN" "http://www.w3.org/Graphics/SVG/1.1/DTD/svg11.dtd">
<svg version="1.1" id="Capa_1" xmlns="http://www.w3.org/2000/svg" xmlns:xlink="http://www.w3.org/1999/xlink" x="0px" y="0px"
	 viewBox="0 0 343.975 343.975" style="enable-background:new 0 0 343.975 343.975;" xml:space="preserve">
<g>
	<path d="M334.737,166.225c-4.143,0-7.5,3.358-7.5,7.5c0,85.605-69.645,155.25-155.249,155.25
		c-85.605,0-155.25-69.645-155.25-155.25c0-85.604,69.645-155.249,155.25-155.249c25.257,0,50.324,6.199,72.493,17.928
		c3.661,1.938,8.199,0.538,10.136-3.122c1.937-3.661,0.54-8.2-3.122-10.137C227.173,10.277,199.68,3.476,171.988,3.476
		c-93.876,0-170.25,76.374-170.25,170.249c0,93.876,76.374,170.25,170.25,170.25s170.249-76.374,170.249-170.25
		C342.237,169.583,338.879,166.225,334.737,166.225z"/>
	<path d="M231.677,56.124c-4.142,0.089-7.426,3.518-7.337,7.659c0.088,4.086,3.428,7.339,7.495,7.339c0.055,0,0.109,0,0.164-0.002
		l54.941-1.181c1.988-0.042,3.879-0.874,5.255-2.31s2.125-3.36,2.082-5.349l-1.182-54.94c-0.089-4.141-3.561-7.452-7.659-7.337
		c-4.142,0.089-7.426,3.518-7.337,7.659l1.021,47.442L231.677,56.124z"/>
	<path d="M192.586,233.392c4.143,0,7.5-3.358,7.5-7.5v-25.582h17.947c4.143,0,7.5-3.358,7.5-7.5s-3.357-7.5-7.5-7.5h-17.947v-63.752
		c0-3.239-2.079-6.112-5.155-7.124c-3.074-1.012-6.454,0.064-8.379,2.67l-52.591,71.252c-1.681,2.277-1.937,5.307-0.661,7.834
		c1.275,2.527,3.865,4.12,6.695,4.12h45.091v25.582C185.086,230.034,188.444,233.392,192.586,233.392z M154.853,185.311
		l30.233-40.961v40.961H154.853z"/>
	<path d="M55.644,216.381c-2.125,2.152-2.75,5.371-1.583,8.162c1.167,2.791,3.895,4.608,6.92,4.608h66.163
		c4.142,0,7.5-3.358,7.5-7.5s-3.358-7.5-7.5-7.5H78.926l39.533-40.04c10.143-10.273,13.025-25.025,7.521-38.5
		c-5.336-13.064-17.31-21.32-31.25-21.546c-0.222-0.003-0.445-0.005-0.667-0.005c-22.377,0-40.582,18.205-40.582,40.582
		c0,4.142,3.358,7.5,7.5,7.5s7.5-3.358,7.5-7.5c0-14.106,11.476-25.582,25.582-25.582l0.425,0.003
		c7.951,0.129,14.533,4.697,17.606,12.22c2.503,6.13,2.687,15.205-4.309,22.29L55.644,216.381z"/>
	<path d="M282.994,233.392c4.143,0,7.5-3.358,7.5-7.5v-14.396c0-14.554-11.841-26.395-26.395-26.395h-0.382
		c-4.078,0-7.942,0.931-11.394,2.589v-36.165c0-4.142-3.357-7.5-7.5-7.5s-7.5,3.358-7.5,7.5v59.971v14.396
		c0,4.142,3.357,7.5,7.5,7.5s7.5-3.358,7.5-7.5v-14.396c0-6.283,5.111-11.395,11.394-11.395h0.382
		c6.283,0,11.395,5.112,11.395,11.395v14.396C275.494,230.034,278.852,233.392,282.994,233.392z"/>
</g>
<g>
</g>
<g>
</g>
<g>
</g>
<g>
</g>
<g>
</g>
<g>
</g>
<g>
</g>
<g>
</g>
<g>
</g>
<g>
</g>
<g>
</g>
<g>
</g>
<g>
</g>
<g>
</g>
<g>
</g>
</svg>
