<?xml version="1.0" encoding="iso-8859-1"?>
<!-- Generator: Adobe Illustrator 17.1.0, SVG Export Plug-In . SVG Version: 6.00 Build 0)  -->
<!DOCTYPE svg PUBLIC "-//W3C//DTD SVG 1.1//EN" "http://www.w3.org/Graphics/SVG/1.1/DTD/svg11.dtd">
<svg version="1.1" id="Capa_1" xmlns="http://www.w3.org/2000/svg" xmlns:xlink="http://www.w3.org/1999/xlink" x="0px" y="0px"
	 viewBox="0 0 344.448 344.448" style="enable-background:new 0 0 344.448 344.448;" xml:space="preserve">
<g>
	<path d="M304.7,252.725c-4.142,0-7.5,3.358-7.5,7.5v69.224H47.249V202.016h257.43c0.005,0,0.009,0.001,0.014,0.001
		c0.018,0,0.035-0.003,0.053-0.003c0.275-0.002,0.545-0.02,0.812-0.05c0.076-0.009,0.15-0.023,0.226-0.034
		c0.216-0.031,0.429-0.07,0.639-0.12c0.078-0.019,0.156-0.039,0.234-0.06c0.212-0.057,0.419-0.123,0.623-0.198
		c0.068-0.025,0.137-0.048,0.204-0.075c0.254-0.102,0.502-0.214,0.742-0.342c0.013-0.007,0.027-0.012,0.041-0.02
		c0.245-0.133,0.48-0.282,0.708-0.44c0.082-0.057,0.161-0.12,0.242-0.181c0.148-0.112,0.292-0.229,0.432-0.351
		c0.081-0.072,0.162-0.143,0.24-0.219c0.165-0.159,0.323-0.325,0.473-0.498c0.036-0.042,0.076-0.079,0.111-0.122
		c0.188-0.226,0.359-0.466,0.52-0.713c0.014-0.021,0.031-0.04,0.045-0.061c0.036-0.057,0.063-0.116,0.098-0.173
		c0.079-0.132,0.156-0.265,0.227-0.402c0.047-0.09,0.089-0.182,0.132-0.273c0.06-0.129,0.119-0.259,0.172-0.392
		c0.042-0.106,0.08-0.213,0.117-0.319c0.042-0.121,0.082-0.242,0.118-0.366c0.036-0.123,0.066-0.246,0.095-0.369
		c0.026-0.111,0.052-0.222,0.073-0.336c0.026-0.139,0.046-0.278,0.064-0.418c0.013-0.103,0.027-0.205,0.036-0.308
		c0.013-0.151,0.019-0.303,0.023-0.454c0.002-0.068,0.01-0.134,0.01-0.203c0-0.031-0.004-0.062-0.005-0.093
		c-0.002-0.144-0.012-0.287-0.022-0.431c-0.008-0.11-0.013-0.221-0.026-0.33c-0.013-0.117-0.034-0.232-0.053-0.347
		c-0.021-0.132-0.041-0.264-0.069-0.393c-0.019-0.089-0.046-0.177-0.068-0.266c-0.038-0.149-0.075-0.298-0.122-0.443
		c-0.025-0.078-0.057-0.155-0.085-0.232c-0.053-0.148-0.106-0.297-0.168-0.441c-0.04-0.092-0.087-0.18-0.13-0.271
		c-0.06-0.124-0.117-0.249-0.183-0.369c-0.064-0.117-0.137-0.229-0.208-0.342c-0.055-0.088-0.106-0.178-0.164-0.264
		c-0.087-0.128-0.184-0.25-0.279-0.373c-0.052-0.067-0.1-0.136-0.155-0.201c-0.096-0.116-0.201-0.225-0.305-0.335
		c-0.064-0.068-0.126-0.139-0.192-0.205c-0.093-0.091-0.193-0.177-0.291-0.265c-0.089-0.079-0.177-0.16-0.27-0.235
		c-0.084-0.068-0.173-0.13-0.261-0.195c-0.117-0.087-0.235-0.173-0.357-0.253c-0.026-0.017-0.049-0.036-0.075-0.053L192.127,114.34
		c3.649-4.68,5.832-10.558,5.832-16.939c0-12.623-8.516-23.294-20.104-26.569v-9.778h17.203c4.142,0,7.5-3.358,7.5-7.5V7.5
		c0-4.142-3.358-7.5-7.5-7.5h-17.833c-4.142,0-7.5,3.358-7.5,7.5s3.358,7.5,7.5,7.5h10.333v31.054h-30.665V7.5
		c0-4.142-3.358-7.5-7.5-7.5s-7.5,3.358-7.5,7.5v46.054c0,4.142,3.358,7.5,7.5,7.5h13.462v16.243c0,4.142,3.358,7.5,7.5,7.5
		c6.95,0,12.604,5.654,12.604,12.604c0,3.439-1.388,6.558-3.628,8.834l-3.093-1.959c-2.451-1.552-5.575-1.552-8.026,0l-5.236,3.316
		c-1.094-0.791-2.078-1.746-2.882-2.869c-2.41-3.369-7.095-4.145-10.464-1.734c-3.369,2.411-4.145,7.096-1.734,10.464
		c0.613,0.856,1.274,1.669,1.973,2.441L35.735,188.18c-0.026,0.017-0.049,0.036-0.075,0.053c-0.122,0.08-0.24,0.166-0.357,0.253
		c-0.088,0.065-0.177,0.127-0.261,0.195c-0.093,0.075-0.18,0.155-0.27,0.235c-0.098,0.087-0.198,0.173-0.291,0.265
		c-0.067,0.066-0.128,0.136-0.192,0.205c-0.104,0.11-0.209,0.22-0.305,0.335c-0.054,0.065-0.103,0.134-0.155,0.201
		c-0.095,0.123-0.192,0.245-0.279,0.373c-0.058,0.085-0.109,0.176-0.164,0.264c-0.07,0.114-0.144,0.225-0.208,0.342
		c-0.066,0.12-0.123,0.245-0.183,0.369c-0.043,0.09-0.091,0.179-0.13,0.271c-0.062,0.144-0.115,0.293-0.168,0.441
		c-0.028,0.078-0.06,0.154-0.085,0.232c-0.047,0.145-0.084,0.294-0.122,0.443c-0.023,0.089-0.049,0.176-0.068,0.266
		c-0.028,0.129-0.047,0.261-0.069,0.393c-0.019,0.116-0.04,0.231-0.053,0.347c-0.012,0.109-0.018,0.22-0.026,0.33
		c-0.01,0.144-0.02,0.287-0.022,0.431c0,0.031-0.005,0.062-0.005,0.093v142.433c0,4.142,3.358,7.5,7.5,7.5H304.7
		c4.142,0,7.5-3.358,7.5-7.5v-76.724C312.2,256.083,308.842,252.725,304.7,252.725z M170.354,125.006c2.954,0,5.8-0.472,8.47-1.335
		l100.016,63.345H65.608l98.917-62.648C166.424,124.78,168.375,125.006,170.354,125.006z"/>
	<path d="M70.429,222.319v86.825c0,4.142,3.358,7.5,7.5,7.5s7.5-3.358,7.5-7.5v-86.825c0-4.142-3.358-7.5-7.5-7.5
		S70.429,218.177,70.429,222.319z"/>
	<path d="M108.147,222.319v86.825c0,4.142,3.358,7.5,7.5,7.5s7.5-3.358,7.5-7.5v-86.825c0-4.142-3.358-7.5-7.5-7.5
		S108.147,218.177,108.147,222.319z"/>
	<path d="M145.865,222.319v86.825c0,4.142,3.358,7.5,7.5,7.5s7.5-3.358,7.5-7.5v-86.825c0-4.142-3.358-7.5-7.5-7.5
		S145.865,218.177,145.865,222.319z"/>
	<path d="M183.583,222.319v86.825c0,4.142,3.358,7.5,7.5,7.5s7.5-3.358,7.5-7.5v-86.825c0-4.142-3.358-7.5-7.5-7.5
		S183.583,218.177,183.583,222.319z"/>
	<path d="M221.301,222.319v86.825c0,4.142,3.358,7.5,7.5,7.5s7.5-3.358,7.5-7.5v-86.825c0-4.142-3.358-7.5-7.5-7.5
		S221.301,218.177,221.301,222.319z"/>
	<path d="M259.019,222.319v86.825c0,4.142,3.358,7.5,7.5,7.5s7.5-3.358,7.5-7.5v-86.825c0-4.142-3.358-7.5-7.5-7.5
		S259.019,218.177,259.019,222.319z"/>
</g>
<g>
</g>
<g>
</g>
<g>
</g>
<g>
</g>
<g>
</g>
<g>
</g>
<g>
</g>
<g>
</g>
<g>
</g>
<g>
</g>
<g>
</g>
<g>
</g>
<g>
</g>
<g>
</g>
<g>
</g>
</svg>
