<?xml version="1.0" encoding="iso-8859-1"?>
<!-- Generator: Adobe Illustrator 17.1.0, SVG Export Plug-In . SVG Version: 6.00 Build 0)  -->
<!DOCTYPE svg PUBLIC "-//W3C//DTD SVG 1.1//EN" "http://www.w3.org/Graphics/SVG/1.1/DTD/svg11.dtd">
<svg version="1.1" id="Capa_1" xmlns="http://www.w3.org/2000/svg" xmlns:xlink="http://www.w3.org/1999/xlink" x="0px" y="0px"
	 viewBox="0 0 378.213 378.213" style="enable-background:new 0 0 378.213 378.213;" xml:space="preserve">
<g>
	<path d="M263.462,101.255c-25.651,0-46.52,20.868-46.52,46.52c0,4.143,3.357,7.5,7.5,7.5s7.5-3.357,7.5-7.5
		c0-17.38,14.14-31.52,31.52-31.52c4.143,0,7.5-3.357,7.5-7.5S267.604,101.255,263.462,101.255z"/>
	<path d="M376.017,230.065l-50.693-50.693c13.307-26.1,9.071-58.914-12.738-80.722c-13.121-13.121-30.567-20.347-49.124-20.347
		s-36.003,7.226-49.125,20.348c-27.086,27.087-27.086,71.161,0,98.249c13.122,13.121,30.568,20.348,49.125,20.348
		c11.178,0,21.945-2.64,31.615-7.593l50.675,50.675c1.465,1.464,3.385,2.196,5.304,2.196s3.839-0.732,5.304-2.196l19.657-19.657
		C378.945,237.743,378.945,232.995,376.017,230.065z M224.944,186.294c-21.238-21.239-21.238-55.798-0.001-77.036
		c10.289-10.288,23.969-15.954,38.519-15.954s28.229,5.666,38.518,15.954c10.289,10.288,15.955,23.968,15.955,38.518
		c0,11.055-3.279,21.603-9.363,30.548l-14.562,14.562c-8.944,6.084-19.493,9.363-30.547,9.363
		C248.912,202.248,235.232,196.582,224.944,186.294z M351.056,244.42l-43.206-43.206c1.632-1.36,3.217-2.793,4.737-4.313
		c1.526-1.526,2.954-3.114,4.309-4.742l43.211,43.211L351.056,244.42z"/>
	<path d="M263.462,231.16c-4.143,0-7.5,3.357-7.5,7.5v25.901c0,11.221-9.128,20.349-20.349,20.349h-77.55V128.106
		c0-4.143-3.357-7.5-7.5-7.5s-7.5,3.357-7.5,7.5V284.91h-25.644l16.746-16.746c2.929-2.929,2.929-7.677-0.001-10.606
		c-2.928-2.928-7.677-2.929-10.606,0.001L96.207,284.91H66.848l40.031-40.031c2.929-2.93,2.929-7.678,0-10.607
		c-2.93-2.928-7.678-2.928-10.607,0L45.633,284.91H35.349c-5.287,0-10.093-2.043-13.715-5.36l105.958-105.959
		c2.929-2.93,2.929-7.678,0-10.607c-2.93-2.928-7.678-2.928-10.607,0L15.02,264.95c-0.003-0.131-0.02-0.257-0.02-0.388V235.61
		l67.981-67.98c16.938-2.439,29.997-17.043,29.997-34.645V107.41h73.832c4.143,0,7.5-3.357,7.5-7.5s-3.357-7.5-7.5-7.5h-81.332
		c-4.143,0-7.5,3.357-7.5,7.5v33.075c0,11.033-8.976,20.009-20.008,20.009h-0.556c-11.033,0-20.01-8.976-20.01-20.009V99.91
		c0-4.143-3.357-7.5-7.5-7.5H7.5c-4.143,0-7.5,3.357-7.5,7.5v164.651c0,19.491,15.857,35.349,35.349,35.349h200.265
		c19.491,0,35.349-15.857,35.349-35.349V238.66C270.962,234.517,267.604,231.16,263.462,231.16z M64.057,165.339L15,214.395V185.95
		l33.398-33.398C52.227,158.212,57.669,162.692,64.057,165.339z M42.405,107.41v25.575c0,1.387,0.09,2.752,0.248,4.097L15,164.735
		V107.41H42.405z"/>
</g>
<g>
</g>
<g>
</g>
<g>
</g>
<g>
</g>
<g>
</g>
<g>
</g>
<g>
</g>
<g>
</g>
<g>
</g>
<g>
</g>
<g>
</g>
<g>
</g>
<g>
</g>
<g>
</g>
<g>
</g>
</svg>
