<?xml version="1.0" encoding="iso-8859-1"?>
<!-- Generator: Adobe Illustrator 17.1.0, SVG Export Plug-In . SVG Version: 6.00 Build 0)  -->
<!DOCTYPE svg PUBLIC "-//W3C//DTD SVG 1.1//EN" "http://www.w3.org/Graphics/SVG/1.1/DTD/svg11.dtd">
<svg version="1.1" id="Capa_1" xmlns="http://www.w3.org/2000/svg" xmlns:xlink="http://www.w3.org/1999/xlink" x="0px" y="0px"
	 viewBox="0 0 345.183 345.183" style="enable-background:new 0 0 345.183 345.183;" xml:space="preserve">
<g>
	<path d="M201.106,154.657c3.659-1.941,5.052-6.481,3.111-10.14c-1.941-3.658-6.479-5.053-10.141-3.111
		c-6.565,3.482-13.995,5.323-21.485,5.323c-25.325,0-45.929-20.604-45.929-45.928s20.604-45.928,45.929-45.928
		s45.929,20.604,45.929,45.928c0,4.142,3.357,7.5,7.5,7.5s7.5-3.358,7.5-7.5c0-33.596-27.332-60.928-60.929-60.928
		s-60.929,27.333-60.929,60.928s27.332,60.928,60.929,60.928C182.523,161.729,192.383,159.284,201.106,154.657z"/>
	<path d="M167.674,303.529c1.407,1.221,3.161,1.836,4.918,1.836c1.618,0,3.24-0.522,4.596-1.574
		c0.989-0.768,24.51-19.193,48.22-53.428c21.89-31.607,47.984-83.212,47.984-149.563C273.392,45.219,228.173,0,172.591,0
		S71.791,45.219,71.791,100.801c0,61.846,26.061,113.662,47.923,146.239C143.324,282.222,166.692,302.676,167.674,303.529z
		 M172.591,15c47.311,0,85.801,38.49,85.801,85.801c0,62.254-24.478,110.812-45.013,140.584
		c-16.233,23.537-32.647,39.412-40.548,46.441c-7.863-7.638-24.479-24.955-40.91-49.514
		c-20.589-30.772-45.131-79.608-45.131-137.511C86.791,53.49,125.281,15,172.591,15z"/>
	<path d="M226.872,278.951c-4.093-0.616-7.914,2.208-8.528,6.305c-0.614,4.096,2.209,7.915,6.306,8.529
		c37.036,5.552,46.368,14.506,46.694,16.37c-0.221,1.298-5.448,7.24-27.006,12.594c-19.302,4.793-44.782,7.434-71.746,7.434
		s-52.444-2.64-71.746-7.434c-21.558-5.354-26.785-11.295-27.006-12.539c0.324-1.91,9.605-10.828,46.438-16.386
		c4.096-0.618,6.915-4.439,6.297-8.535c-0.618-4.097-4.44-6.913-8.535-6.297c-27.006,4.075-59.197,12.793-59.197,31.19
		c0,11.411,12.361,20.396,36.74,26.706c20.664,5.349,48.014,8.294,77.01,8.294s56.346-2.945,77.01-8.294
		c24.379-6.31,36.74-15.295,36.74-26.706C286.341,291.737,254.001,283.018,226.872,278.951z"/>
</g>
<g>
</g>
<g>
</g>
<g>
</g>
<g>
</g>
<g>
</g>
<g>
</g>
<g>
</g>
<g>
</g>
<g>
</g>
<g>
</g>
<g>
</g>
<g>
</g>
<g>
</g>
<g>
</g>
<g>
</g>
</svg>
