<?xml version="1.0" encoding="iso-8859-1"?>
<!-- Generator: Adobe Illustrator 17.1.0, SVG Export Plug-In . SVG Version: 6.00 Build 0)  -->
<!DOCTYPE svg PUBLIC "-//W3C//DTD SVG 1.1//EN" "http://www.w3.org/Graphics/SVG/1.1/DTD/svg11.dtd">
<svg version="1.1" id="Capa_1" xmlns="http://www.w3.org/2000/svg" xmlns:xlink="http://www.w3.org/1999/xlink" x="0px" y="0px"
	 viewBox="0 0 417.993 417.993" style="enable-background:new 0 0 417.993 417.993;" xml:space="preserve">
<g>
	<path d="M267.892,208.997c0-55.686-45.304-100.99-100.99-100.99c-2.758,0-5.497,0.126-8.217,0.348
		c-0.713-0.225-1.472-0.348-2.259-0.348h-56.371C44.885,108.007,0,152.891,0,208.062v1.87c0,55.17,44.885,100.055,100.055,100.055
		h56.371c0.79,0,1.551-0.124,2.266-0.35c2.723,0.222,5.46,0.35,8.211,0.35C222.588,309.986,267.892,264.683,267.892,208.997z
		 M252.892,208.997c0,47.415-38.575,85.99-85.99,85.99c-42.681,0-79.294-31.823-85.165-74.023
		c-0.547-3.935-0.825-7.961-0.825-11.966c0-4.943,0.422-9.897,1.255-14.726c0.704-4.082-2.035-7.961-6.117-8.666
		c-4.077-0.7-7.961,2.035-8.666,6.117c-0.608,3.526-1.006,7.11-1.238,10.709h-50.94c0.803-12.216,4.19-23.733,9.629-34.011h54.051
		c0.627,0.859,1.44,1.601,2.433,2.147c3.63,1.998,8.19,0.673,10.187-2.956c15.137-27.513,44.027-44.605,75.396-44.605
		C214.317,123.007,252.892,161.582,252.892,208.997z M100.055,123.007h13.919c-12.402,7.633-23.167,17.948-31.392,30.414H34.94
		C50.555,134.843,73.945,123.007,100.055,123.007z M100.055,294.986c-44.37,0-80.893-34.157-84.706-77.555h50.926
		c0.155,1.876,0.348,3.747,0.605,5.598c1.234,8.87,3.649,17.471,7.124,25.603H51.997c-4.142,0-7.5,3.358-7.5,7.5s3.358,7.5,7.5,7.5
		h29.986c5.058,7.851,11.204,15.039,18.341,21.301c4.281,3.756,8.854,7.102,13.646,10.052H100.055z"/>
	<path d="M410.493,184.507H290.397c-4.142,0-7.5,3.358-7.5,7.5s3.358,7.5,7.5,7.5h9.169v21.62H286.14c-4.142,0-7.5,3.358-7.5,7.5
		s3.358,7.5,7.5,7.5h11.447v21.62H286.14h-4.73H270.94c-4.142,0-7.5,3.358-7.5,7.5v29.12h-17.979c-4.142,0-7.5,3.358-7.5,7.5
		s3.358,7.5,7.5,7.5h128.906c4.142,0,7.5-3.358,7.5-7.5v-36.62c0-4.142-3.358-7.5-7.5-7.5h-26.151v-21.62h62.276
		c4.142,0,7.5-3.358,7.5-7.5v-36.62C417.993,187.865,414.635,184.507,410.493,184.507z M348.217,199.507h19.146v21.62h-19.146
		V199.507z M314.566,199.507h18.651v21.62h-18.651V199.507z M331.237,294.368h-19.146v-21.62h19.146V294.368z M278.44,272.748h2.969
		h4.73h10.952v21.62H278.44V272.748z M366.868,294.368h-20.63v-21.62h20.63V294.368z M333.217,257.748h-20.63v-21.62h20.63V257.748z
		 M402.993,221.127h-20.631v-21.62h20.631V221.127z"/>
</g>
<g>
</g>
<g>
</g>
<g>
</g>
<g>
</g>
<g>
</g>
<g>
</g>
<g>
</g>
<g>
</g>
<g>
</g>
<g>
</g>
<g>
</g>
<g>
</g>
<g>
</g>
<g>
</g>
<g>
</g>
</svg>
