<?xml version="1.0" encoding="iso-8859-1"?>
<!-- Generator: Adobe Illustrator 17.1.0, SVG Export Plug-In . SVG Version: 6.00 Build 0)  -->
<!DOCTYPE svg PUBLIC "-//W3C//DTD SVG 1.1//EN" "http://www.w3.org/Graphics/SVG/1.1/DTD/svg11.dtd">
<svg version="1.1" id="Capa_1" xmlns="http://www.w3.org/2000/svg" xmlns:xlink="http://www.w3.org/1999/xlink" x="0px" y="0px"
	 viewBox="0 0 312.5 312.5" style="enable-background:new 0 0 312.5 312.5;" xml:space="preserve">
<g>
	<path d="M305,97.75c-4.142,0-7.5,3.358-7.5,7.5V297.5H15V15h290c4.142,0,7.5-3.358,7.5-7.5S309.142,0,305,0H7.5
		C3.358,0,0,3.358,0,7.5V305c0,4.142,3.358,7.5,7.5,7.5H305c4.142,0,7.5-3.358,7.5-7.5V105.25
		C312.5,101.108,309.142,97.75,305,97.75z"/>
	<path d="M73.694,215.777c4.142,0,7.5-3.358,7.5-7.5v-85.948l13.781,13.781c1.464,1.464,3.384,2.197,5.303,2.197
		s3.839-0.732,5.303-2.197c2.929-2.929,2.929-7.678,0-10.606L78.999,98.921c-0.175-0.175-0.36-0.341-0.552-0.499
		c-0.083-0.068-0.172-0.128-0.257-0.192c-0.11-0.083-0.218-0.168-0.332-0.244c-0.104-0.069-0.211-0.129-0.317-0.193
		c-0.104-0.062-0.206-0.127-0.313-0.185c-0.108-0.058-0.219-0.107-0.329-0.159c-0.112-0.053-0.221-0.108-0.336-0.156
		c-0.107-0.044-0.216-0.08-0.324-0.119c-0.122-0.044-0.243-0.091-0.369-0.129c-0.107-0.032-0.216-0.056-0.325-0.083
		c-0.129-0.033-0.256-0.068-0.387-0.095c-0.122-0.024-0.245-0.038-0.367-0.056c-0.12-0.018-0.237-0.04-0.359-0.052
		c-0.216-0.021-0.432-0.03-0.648-0.033c-0.03,0-0.059-0.005-0.089-0.005s-0.059,0.004-0.089,0.005
		c-0.216,0.003-0.433,0.012-0.648,0.033c-0.122,0.012-0.24,0.034-0.359,0.052c-0.122,0.018-0.245,0.032-0.367,0.056
		c-0.131,0.026-0.259,0.062-0.388,0.095c-0.108,0.027-0.217,0.051-0.324,0.083c-0.125,0.038-0.246,0.085-0.369,0.129
		c-0.108,0.039-0.218,0.075-0.324,0.119c-0.114,0.047-0.224,0.103-0.336,0.156c-0.11,0.052-0.221,0.101-0.329,0.159
		c-0.107,0.058-0.209,0.123-0.314,0.185c-0.106,0.063-0.213,0.123-0.316,0.192c-0.115,0.077-0.223,0.162-0.334,0.245
		c-0.085,0.064-0.173,0.123-0.256,0.191c-0.192,0.157-0.376,0.323-0.552,0.499l-26.583,26.583c-2.929,2.929-2.929,7.678,0,10.606
		c2.929,2.929,7.678,2.929,10.606,0l13.781-13.781v85.948C66.194,212.419,69.552,215.777,73.694,215.777z"/>
	<path d="M216.25,265.417c-4.142,0-7.5,3.358-7.5,7.5s3.358,7.5,7.5,7.5h57.5c4.142,0,7.5-3.358,7.5-7.5v-64.639
		c0-4.142-3.358-7.5-7.5-7.5h-117.5c-4.142,0-7.5,3.358-7.5,7.5v64.639c0,4.142,3.358,7.5,7.5,7.5s7.5-3.358,7.5-7.5v-57.139h102.5
		v49.639H216.25z"/>
	<path d="M156.25,184.58h95c4.142,0,7.5-3.358,7.5-7.5s-3.358-7.5-7.5-7.5h-95c-4.142,0-7.5,3.358-7.5,7.5
		S152.108,184.58,156.25,184.58z"/>
	<path d="M156.25,158.747h47.5c4.142,0,7.5-3.358,7.5-7.5s-3.358-7.5-7.5-7.5h-47.5c-4.142,0-7.5,3.358-7.5,7.5
		S152.108,158.747,156.25,158.747z"/>
	<path d="M156.25,132.914h75c4.142,0,7.5-3.358,7.5-7.5s-3.358-7.5-7.5-7.5h-75c-4.142,0-7.5,3.358-7.5,7.5
		S152.108,132.914,156.25,132.914z"/>
</g>
<g>
</g>
<g>
</g>
<g>
</g>
<g>
</g>
<g>
</g>
<g>
</g>
<g>
</g>
<g>
</g>
<g>
</g>
<g>
</g>
<g>
</g>
<g>
</g>
<g>
</g>
<g>
</g>
<g>
</g>
</svg>
