<?xml version="1.0" encoding="iso-8859-1"?>
<!-- Generator: Adobe Illustrator 17.1.0, SVG Export Plug-In . SVG Version: 6.00 Build 0)  -->
<!DOCTYPE svg PUBLIC "-//W3C//DTD SVG 1.1//EN" "http://www.w3.org/Graphics/SVG/1.1/DTD/svg11.dtd">
<svg version="1.1" id="Capa_1" xmlns="http://www.w3.org/2000/svg" xmlns:xlink="http://www.w3.org/1999/xlink" x="0px" y="0px"
	 viewBox="0 0 312.5 312.5" style="enable-background:new 0 0 312.5 312.5;" xml:space="preserve">
<g>
	<path d="M305,0c-4.142,0-7.5,3.358-7.5,7.5v290h-54.375v-60c0-2.857-1.624-5.467-4.188-6.729c-2.563-1.263-5.621-0.958-7.886,0.785
		l-34.468,26.521l-6.58-6.58c-2.929-2.929-7.678-2.929-10.606,0c-2.929,2.929-2.929,7.678,0,10.606l11.237,11.237
		c2.663,2.664,6.891,2.938,9.877,0.641l27.614-21.247V297.5H163.75v-60c0-4.142-3.358-7.5-7.5-7.5s-7.5,3.358-7.5,7.5v60H15V15
		h133.75v60c0,2.857,1.624,5.467,4.188,6.729c2.563,1.263,5.621,0.958,7.886-0.785l35.114-27.018l35.114,27.018
		c1.337,1.029,2.95,1.556,4.575,1.556c1.128,0,2.261-0.254,3.312-0.771c2.564-1.262,4.188-3.871,4.188-6.729V7.5
		c0-4.142-3.358-7.5-7.5-7.5H156.25H7.5C3.358,0,0,3.358,0,7.5V305c0,4.142,3.358,7.5,7.5,7.5h148.75h79.375H305
		c4.142,0,7.5-3.358,7.5-7.5V7.5C312.5,3.358,309.142,0,305,0z M228.125,15v44.766l-27.614-21.247
		c-1.348-1.038-2.961-1.556-4.574-1.556s-3.226,0.519-4.574,1.556L163.75,59.766V15H228.125z"/>
	<path d="M73.694,215.777c4.142,0,7.5-3.358,7.5-7.5v-85.948l13.781,13.781c1.464,1.464,3.384,2.197,5.303,2.197
		s3.839-0.732,5.303-2.197c2.929-2.929,2.929-7.678,0-10.606L78.999,98.921c-0.175-0.175-0.36-0.341-0.552-0.499
		c-0.083-0.068-0.172-0.128-0.257-0.192c-0.11-0.083-0.218-0.168-0.332-0.244c-0.104-0.069-0.211-0.129-0.317-0.193
		c-0.104-0.062-0.206-0.127-0.313-0.185c-0.108-0.058-0.219-0.107-0.329-0.159c-0.112-0.053-0.221-0.108-0.336-0.156
		c-0.107-0.044-0.216-0.08-0.324-0.119c-0.122-0.044-0.243-0.091-0.369-0.129c-0.107-0.032-0.216-0.056-0.325-0.083
		c-0.129-0.033-0.256-0.068-0.387-0.095c-0.122-0.024-0.245-0.038-0.367-0.056c-0.12-0.018-0.237-0.04-0.359-0.052
		c-0.216-0.021-0.432-0.03-0.648-0.033c-0.03,0-0.059-0.005-0.089-0.005s-0.059,0.004-0.089,0.005
		c-0.216,0.003-0.433,0.012-0.648,0.033c-0.122,0.012-0.24,0.034-0.359,0.052c-0.122,0.018-0.245,0.032-0.367,0.056
		c-0.131,0.026-0.259,0.062-0.388,0.095c-0.108,0.027-0.217,0.051-0.324,0.083c-0.125,0.038-0.246,0.085-0.369,0.129
		c-0.108,0.039-0.218,0.075-0.324,0.119c-0.114,0.047-0.224,0.103-0.336,0.156c-0.11,0.052-0.221,0.101-0.329,0.159
		c-0.107,0.058-0.209,0.123-0.314,0.185c-0.106,0.063-0.213,0.123-0.316,0.192c-0.115,0.077-0.223,0.162-0.334,0.245
		c-0.085,0.064-0.173,0.123-0.256,0.191c-0.192,0.157-0.376,0.323-0.552,0.499l-26.583,26.583c-2.929,2.929-2.929,7.678,0,10.606
		c2.929,2.929,7.678,2.929,10.606,0l13.781-13.781v85.948C66.194,212.419,69.552,215.777,73.694,215.777z"/>
</g>
<g>
</g>
<g>
</g>
<g>
</g>
<g>
</g>
<g>
</g>
<g>
</g>
<g>
</g>
<g>
</g>
<g>
</g>
<g>
</g>
<g>
</g>
<g>
</g>
<g>
</g>
<g>
</g>
<g>
</g>
</svg>
