<?xml version="1.0" encoding="iso-8859-1"?>
<!-- Generator: Adobe Illustrator 17.1.0, SVG Export Plug-In . SVG Version: 6.00 Build 0)  -->
<!DOCTYPE svg PUBLIC "-//W3C//DTD SVG 1.1//EN" "http://www.w3.org/Graphics/SVG/1.1/DTD/svg11.dtd">
<svg version="1.1" id="Capa_1" xmlns="http://www.w3.org/2000/svg" xmlns:xlink="http://www.w3.org/1999/xlink" x="0px" y="0px"
	 viewBox="0 0 405.773 405.773" style="enable-background:new 0 0 405.773 405.773;" xml:space="preserve">
<path d="M210.387,271.457c71.423-3.906,128.333-63.241,128.333-135.623C338.72,60.935,277.785,0,202.887,0
	S67.054,60.935,67.054,135.834c0,30.403,10.041,58.504,26.98,81.164c0.147,0.411,0.326,0.817,0.551,1.209l75.862,132.187v47.879
	c0,4.143,3.357,7.5,7.5,7.5h49.879c4.143,0,7.5-3.357,7.5-7.5v-47.827l43.017-72.742c2.108-3.565,0.927-8.165-2.639-10.273
	c-3.565-2.106-8.163-0.926-10.273,2.639l-41.883,70.825h-13.161V271.457z M182.291,340.895l-51.729-90.135
	c18.971,11.981,41.095,19.4,64.825,20.697v69.438H182.291z M323.72,135.834c0,54.574-36.37,100.805-86.142,115.75
	c4.68-6.042,8.987-13.381,12.821-21.937c11.286-25.183,17.502-58.499,17.502-93.813s-6.216-68.63-17.501-93.813
	c-3.835-8.556-8.142-15.895-12.822-21.937C287.35,35.029,323.72,81.26,323.72,135.834z M202.887,15
	c12.053,0,24.382,12.085,33.825,33.155c10.439,23.296,16.189,54.434,16.189,87.679s-5.75,64.383-16.189,87.678
	c-9.443,21.07-21.772,33.155-33.825,33.155s-24.382-12.085-33.825-33.155c-10.439-23.295-16.189-54.433-16.189-87.678
	c0-23.841,3.011-46.969,8.708-66.885c1.139-3.982-1.166-8.134-5.148-9.273c-3.979-1.139-8.134,1.166-9.273,5.148
	c-6.075,21.238-9.286,45.793-9.286,71.01c0,35.313,6.216,68.63,17.502,93.813c3.834,8.556,8.141,15.895,12.821,21.937
	c-49.772-14.945-86.142-61.176-86.142-115.75C82.054,69.206,136.259,15,202.887,15z M220.326,365.834h-20.439
	c-4.143,0-7.5,3.357-7.5,7.5s3.357,7.5,7.5,7.5h20.439v9.939h-34.879v-34.879h34.879V365.834z"/>
<g>
</g>
<g>
</g>
<g>
</g>
<g>
</g>
<g>
</g>
<g>
</g>
<g>
</g>
<g>
</g>
<g>
</g>
<g>
</g>
<g>
</g>
<g>
</g>
<g>
</g>
<g>
</g>
<g>
</g>
</svg>
