<?xml version="1.0" encoding="iso-8859-1"?>
<!-- Generator: Adobe Illustrator 17.1.0, SVG Export Plug-In . SVG Version: 6.00 Build 0)  -->
<!DOCTYPE svg PUBLIC "-//W3C//DTD SVG 1.1//EN" "http://www.w3.org/Graphics/SVG/1.1/DTD/svg11.dtd">
<svg version="1.1" id="Capa_1" xmlns="http://www.w3.org/2000/svg" xmlns:xlink="http://www.w3.org/1999/xlink" x="0px" y="0px"
	 viewBox="0 0 402.83 402.83" style="enable-background:new 0 0 402.83 402.83;" xml:space="preserve">
<path d="M353.376,273.16c7.757,0,11.279,2.958,16.154,7.052c5.605,4.707,12.58,10.564,25.8,10.564c4.142,0,7.5-3.357,7.5-7.5
	s-3.358-7.5-7.5-7.5c-7.757,0-11.279-2.958-16.154-7.052c-5.605-4.707-12.58-10.564-25.8-10.564c-4.715,0-8.625,0.753-11.973,1.926
	c-0.777-5.697-2.006-11.251-3.656-16.625c4.609-3.862,8.155-6.611,15.628-6.611c7.757,0,11.279,2.958,16.154,7.052
	c5.604,4.707,12.58,10.565,25.8,10.565c4.142,0,7.5-3.357,7.5-7.5s-3.358-7.5-7.5-7.5c-7.757,0-11.279-2.958-16.154-7.052
	c-5.604-4.707-12.58-10.565-25.8-10.565c-9.968,0-16.385,3.331-21.341,6.988c-17.074-35.597-53.471-60.236-95.517-60.236
	c-58.375,0-105.867,47.491-105.867,105.866c0,2.303,0.082,4.587,0.228,6.854H52.713v-205h145.929v78.498c0,4.143,3.358,7.5,7.5,7.5
	s7.5-3.357,7.5-7.5V68.821c0-4.143-3.358-7.5-7.5-7.5H45.213c-4.142,0-7.5,3.357-7.5,7.5v220c0,4.143,3.358,7.5,7.5,7.5h87.711
	c1.315,6.241,3.183,12.279,5.548,18.065c-0.551,0.216-1.079,0.431-1.589,0.64c-3.15,1.288-5.639,2.306-11.169,2.306
	c-5.525,0-8.012-1.018-11.161-2.305c-3.727-1.524-8.365-3.422-16.839-3.422c-8.479,0-13.121,1.896-16.85,3.421
	c-3.152,1.288-5.642,2.306-11.175,2.306c-5.538,0-8.03-1.018-11.186-2.307c-3.731-1.523-8.375-3.42-16.858-3.42
	c-7.803,0-13.92,3.494-18.387,6.045c-1.609,0.919-3.986,2.276-5.03,2.493c-0.179-0.14-0.511-0.441-0.977-1.035
	c-3.433-4.379-2.744-5.684,0.564-11.948c2.595-4.915,6.15-11.647,6.15-20.964c0-10.114-1.711-15.459-3.22-20.174
	c-1.345-4.2-2.506-7.827-2.506-15.599c0-7.772,1.161-11.399,2.506-15.6c1.509-4.716,3.22-10.06,3.22-20.174
	c0-10.117-1.711-15.462-3.22-20.178c-1.345-4.202-2.506-7.83-2.506-15.604c0-7.77,1.161-11.396,2.506-15.595
	c1.509-4.714,3.22-10.057,3.22-20.169c0-10.119-1.71-15.465-3.22-20.182c-1.345-4.204-2.506-7.834-2.506-15.612
	c0-7.785,1.162-11.418,2.507-15.625c1.509-4.72,3.219-10.069,3.219-20.193c0-9.325-3.554-16.061-6.149-20.979
	c-3.313-6.277-4.002-7.583-0.561-11.984c0.457-0.584,0.784-0.884,0.962-1.025c1.046,0.222,3.413,1.573,5.017,2.49
	c4.464,2.55,10.579,6.042,18.375,6.042c8.476,0,13.115-1.896,16.842-3.421c3.149-1.287,5.637-2.305,11.165-2.305
	s8.016,1.018,11.166,2.305c3.728,1.524,8.366,3.421,16.842,3.421c8.477,0,13.117-1.896,16.845-3.42
	c3.151-1.288,5.64-2.306,11.17-2.306c5.525,0,8.012,1.017,11.16,2.305c3.727,1.524,8.365,3.421,16.839,3.421
	c8.479,0,13.12-1.896,16.849-3.42c3.152-1.288,5.642-2.306,11.175-2.306c5.539,0,8.031,1.018,11.187,2.307
	c3.73,1.523,8.374,3.419,16.856,3.419c7.803,0,13.92-3.493,18.387-6.044c1.61-0.919,3.986-2.276,5.031-2.494
	c0.179,0.141,0.511,0.442,0.977,1.036c3.433,4.38,2.745,5.684-0.563,11.948c-2.595,4.916-6.15,11.647-6.15,20.964
	c0,10.114,1.71,15.458,3.22,20.173c1.345,4.2,2.506,7.827,2.506,15.6s-1.161,11.399-2.506,15.601
	c-1.509,4.715-3.22,10.059-3.22,20.173c0,4.143,3.358,7.5,7.5,7.5s7.5-3.357,7.5-7.5c0-7.772,1.161-11.399,2.506-15.601
	c1.509-4.715,3.22-10.059,3.22-20.173s-1.711-15.458-3.22-20.173c-1.344-4.2-2.505-7.828-2.505-15.6c0-5.6,2.144-9.66,4.415-13.96
	c3.604-6.824,8.539-16.172-0.896-28.206c-9.06-11.56-19.592-5.544-25.25-2.314c-3.665,2.094-7.127,4.07-10.948,4.07
	c-5.539,0-8.031-1.018-11.186-2.307c-3.731-1.523-8.374-3.419-16.857-3.419c-8.479,0-13.12,1.896-16.849,3.42
	c-3.152,1.288-5.643,2.306-11.175,2.306c-5.526,0-8.013-1.017-11.161-2.305c-3.727-1.524-8.364-3.421-16.838-3.421
	c-8.478,0-13.118,1.896-16.846,3.42c-3.151,1.288-5.64,2.306-11.169,2.306c-5.528,0-8.016-1.018-11.166-2.305
	c-3.728-1.524-8.366-3.421-16.842-3.421c-8.476,0-13.115,1.896-16.842,3.421c-3.149,1.287-5.637,2.305-11.165,2.305
	c-3.813,0-7.273-1.976-10.935-4.067c-5.658-3.231-16.19-9.247-25.236,2.321C-3.983,41.341,0.95,50.689,4.551,57.515
	c2.271,4.303,4.416,8.367,4.416,13.978c0,7.785-1.162,11.418-2.507,15.625c-1.509,4.72-3.219,10.069-3.219,20.193
	c0,10.119,1.71,15.466,3.22,20.183c1.345,4.204,2.506,7.834,2.506,15.611c0,7.77-1.161,11.396-2.506,15.595
	c-1.509,4.714-3.22,10.057-3.22,20.169c0,10.116,1.71,15.461,3.22,20.177c1.345,4.202,2.506,7.83,2.506,15.605
	c0,7.772-1.161,11.399-2.506,15.6c-1.509,4.715-3.22,10.06-3.22,20.174c0,10.114,1.711,15.458,3.22,20.173
	c1.345,4.2,2.506,7.827,2.506,15.6c0,5.6-2.144,9.66-4.415,13.96c-3.604,6.824-8.539,16.171,0.896,28.206
	c4.006,5.11,8.298,6.786,12.331,6.785c5.089,0,9.764-2.669,12.92-4.472c3.665-2.093,7.127-4.07,10.948-4.07
	c5.539,0,8.031,1.018,11.187,2.307c3.73,1.523,8.374,3.42,16.857,3.42c8.479,0,13.121-1.896,16.85-3.421
	c3.152-1.288,5.642-2.306,11.175-2.306c5.525,0,8.012,1.018,11.16,2.305c3.727,1.524,8.365,3.422,16.839,3.422
	c8.478,0,13.117-1.896,16.845-3.421c0.891-0.364,1.73-0.706,2.599-1.01c18.402,31.343,52.461,52.433,91.359,52.433
	c41.73,0,77.893-24.272,95.126-59.438c2.071-1.436,3.889-2.957,5.578-4.376c4.875-4.094,8.397-7.052,16.154-7.052
	s11.279,2.958,16.154,7.052c5.604,4.707,12.58,10.565,25.8,10.565c4.142,0,7.5-3.357,7.5-7.5s-3.358-7.5-7.5-7.5
	c-7.757,0-11.279-2.958-16.154-7.052c-5.604-4.707-12.58-10.565-25.8-10.565c-5.403,0-9.75,0.987-13.399,2.465
	c1.452-6.691,2.269-13.615,2.385-20.708C345.284,274.336,348.49,273.16,353.376,273.16z M236.517,365.335
	c-29.974,0-56.601-14.592-73.161-37.041c0.506,0.196,1.012,0.403,1.538,0.617c3.728,1.523,8.367,3.421,16.843,3.421
	s13.115-1.897,16.843-3.421c3.149-1.288,5.637-2.306,11.165-2.306c3.813,0,7.272,1.976,10.935,4.067
	c5.659,3.231,16.19,9.247,25.236-2.32c10.06-12.866,5.667-21.533,1.792-29.181c-1.92-3.79-4.098-8.085-5.431-14.035
	c-1.635-7.3-0.434-10.187,1.556-14.968c1.908-4.585,4.282-10.291,4.282-19.838c0-10.118-1.71-15.465-3.22-20.182
	c-1.345-4.203-2.506-7.834-2.506-15.612c0-4.142-3.357-7.5-7.5-7.5c-4.142,0-7.5,3.357-7.5,7.5c0,10.119,1.71,15.466,3.219,20.184
	c1.345,4.203,2.506,7.833,2.506,15.61c0,6.551-1.451,10.037-3.131,14.074c-2.353,5.655-5.021,12.064-2.344,24.012
	c1.743,7.778,4.485,13.188,6.688,17.536c3.43,6.767,3.957,7.807-0.229,13.159c-0.457,0.584-0.784,0.885-0.962,1.026
	c-1.047-0.223-3.414-1.574-5.018-2.49c-4.464-2.551-10.579-6.043-18.375-6.043c-8.476,0-13.115,1.897-16.842,3.421
	c-3.149,1.288-5.637,2.306-11.165,2.306s-8.016-1.018-11.165-2.306c-3.728-1.523-8.366-3.421-16.842-3.421
	c-0.047,0-0.09,0.002-0.136,0.002c-2.195-4.883-3.968-9.994-5.28-15.286h57.828c4.142,0,7.5-3.357,7.5-7.5v-80.877
	c0-4.143-3.358-7.5-7.5-7.5s-7.5,3.357-7.5,7.5v73.377h-52.734c-0.17-2.263-0.257-4.548-0.257-6.854
	c0-50.104,40.763-90.866,90.867-90.866c37.1,0,69.073,22.353,83.173,54.295c-2.253,0.994-4.848,1.57-8.269,1.57
	c-7.748,0-11.267-2.957-16.137-7.05c-5.602-4.708-12.574-10.567-25.788-10.567c-4.142,0-7.5,3.357-7.5,7.5s3.358,7.5,7.5,7.5
	c7.749,0,11.267,2.957,16.138,7.051c5.602,4.707,12.573,10.566,25.788,10.566c5.291,0,9.569-0.947,13.172-2.374
	c1.389,5.465,2.278,11.127,2.623,16.933c-4.691,3.935-8.232,6.751-15.795,6.751c-7.748,0-11.267-2.957-16.137-7.05
	c-5.602-4.708-12.574-10.566-25.788-10.566c-4.142,0-7.5,3.357-7.5,7.5s3.358,7.5,7.5,7.5c7.749,0,11.268,2.957,16.138,7.05
	c5.602,4.708,12.574,10.566,25.788,10.566c6.22,0,11.046-1.304,15.009-3.167c-1.16,7.97-3.357,15.607-6.451,22.771
	c-2.32,1.075-4.989,1.707-8.558,1.707c-7.748,0-11.267-2.957-16.137-7.05c-5.602-4.708-12.574-10.567-25.788-10.567
	c-4.142,0-7.5,3.357-7.5,7.5s3.358,7.5,7.5,7.5c7.749,0,11.267,2.957,16.138,7.051c5.479,4.604,12.284,10.294,24.942,10.543
	C294.09,350.211,267.037,365.335,236.517,365.335z"/>
<g>
</g>
<g>
</g>
<g>
</g>
<g>
</g>
<g>
</g>
<g>
</g>
<g>
</g>
<g>
</g>
<g>
</g>
<g>
</g>
<g>
</g>
<g>
</g>
<g>
</g>
<g>
</g>
<g>
</g>
</svg>
