<?xml version="1.0" encoding="iso-8859-1"?>
<!-- Generator: Adobe Illustrator 17.1.0, SVG Export Plug-In . SVG Version: 6.00 Build 0)  -->
<!DOCTYPE svg PUBLIC "-//W3C//DTD SVG 1.1//EN" "http://www.w3.org/Graphics/SVG/1.1/DTD/svg11.dtd">
<svg version="1.1" id="Capa_1" xmlns="http://www.w3.org/2000/svg" xmlns:xlink="http://www.w3.org/1999/xlink" x="0px" y="0px"
	 viewBox="0 0 371.193 371.193" style="enable-background:new 0 0 371.193 371.193;" xml:space="preserve">
<g>
	<path d="M61.256,154.847h23.07c17.12,0,32.819-10.043,39.993-25.577l0.17-0.367c2.776-6.013,8.85-9.898,15.474-9.898h91.268
		c6.624,0,12.697,3.885,15.478,9.906l0.163,0.351c7.177,15.542,22.876,25.585,39.996,25.585h23.07
		c12.345,0,23.839-6.108,30.746-16.34c6.907-10.231,8.275-23.175,3.66-34.625l-10.506-26.064
		c-8.273-20.525-27.919-33.788-50.049-33.788H146.596c-4.143,0-7.5,3.358-7.5,7.5s3.357,7.5,7.5,7.5h137.192
		c15.979,0,30.163,9.576,36.137,24.396l10.506,26.065c2.79,6.921,1.995,14.439-2.181,20.625s-10.851,9.733-18.313,9.733h-23.07
		c-11.291,0-21.645-6.624-26.382-16.882l-0.162-0.35c-5.221-11.305-16.64-18.61-29.093-18.61h-91.268
		c-12.453,0-23.872,7.305-29.089,18.602l-0.169,0.367c-4.734,10.25-15.088,16.874-26.379,16.874h-23.07
		c-7.463,0-14.138-3.547-18.313-9.733s-4.971-13.703-2.181-20.625l10.506-26.064c5.974-14.82,20.158-24.396,36.137-24.396h0.316
		c4.143,0,7.5-3.358,7.5-7.5s-3.357-7.5-7.5-7.5h-0.316c-22.13,0-41.775,13.263-50.049,33.788l-10.506,26.064
		c-4.615,11.45-3.247,24.394,3.66,34.625C37.417,148.739,48.911,154.847,61.256,154.847z"/>
	<path d="M369.77,265.653l-20.432-84.225c-0.978-4.026-5.026-6.499-9.058-5.521c-4.025,0.977-6.496,5.031-5.521,9.057l20.432,84.225
		c2.531,10.433,0.177,21.257-6.46,29.696s-16.6,13.279-27.336,13.279h-271.6c-10.736,0-20.699-4.84-27.336-13.279
		s-8.991-19.263-6.46-29.696l19.041-78.493h65.837c23.926,0,43.798-17.683,47.234-40.667h74.967
		c3.437,22.984,23.309,40.667,47.234,40.667c4.143,0,7.5-3.358,7.5-7.5s-3.357-7.5-7.5-7.5c-18.063,0-32.76-14.696-32.76-32.76
		v-0.406c0-4.142-3.357-7.5-7.5-7.5h-88.916c-4.143,0-7.5,3.358-7.5,7.5v0.406c0,18.064-14.696,32.76-32.76,32.76H29.143
		c-3.461,0-6.473,2.368-7.289,5.732L1.423,265.653c-3.622,14.934-0.252,30.426,9.247,42.504s23.761,19.006,39.127,19.006h271.6
		c15.366,0,29.628-6.928,39.127-19.006S373.392,280.586,369.77,265.653z"/>
	<path d="M185.596,167.346c-35.152,0-63.75,28.598-63.75,63.75s28.598,63.75,63.75,63.75s63.75-28.598,63.75-63.75
		S220.749,167.346,185.596,167.346z M185.596,279.846c-26.881,0-48.75-21.869-48.75-48.75s21.869-48.75,48.75-48.75
		s48.75,21.869,48.75,48.75S212.477,279.846,185.596,279.846z"/>
	<path d="M185.596,211.096c-11.028,0-20,8.972-20,20s8.972,20,20,20s20-8.972,20-20S196.625,211.096,185.596,211.096z
		 M185.596,236.096c-2.757,0-5-2.243-5-5s2.243-5,5-5s5,2.243,5,5S188.353,236.096,185.596,236.096z"/>
	<path d="M185.596,203.926c1.97,0,3.91-0.8,5.3-2.19c1.4-1.4,2.2-3.34,2.2-5.31c0-1.97-0.8-3.9-2.2-5.3c-1.39-1.4-3.33-2.2-5.3-2.2
		s-3.91,0.8-5.3,2.2c-1.4,1.39-2.2,3.33-2.2,5.3c0,1.98,0.8,3.91,2.2,5.31C181.686,203.126,183.627,203.926,185.596,203.926z"/>
	<path d="M161.087,214.086c1.97,0,3.899-0.8,5.3-2.2c1.399-1.4,2.2-3.33,2.2-5.3c0-1.98-0.801-3.91-2.2-5.31
		c-1.4-1.39-3.33-2.19-5.3-2.19c-1.98,0-3.91,0.8-5.311,2.19c-1.39,1.4-2.189,3.33-2.189,5.31c0,1.97,0.8,3.9,2.189,5.3
		C157.176,213.286,159.106,214.086,161.087,214.086z"/>
	<path d="M158.436,231.096c0-1.97-0.81-3.91-2.2-5.3c-1.399-1.4-3.33-2.2-5.31-2.2c-1.971,0-3.9,0.8-5.3,2.2
		c-1.4,1.39-2.2,3.33-2.2,5.3c0,1.97,0.8,3.91,2.2,5.3c1.399,1.4,3.329,2.2,5.3,2.2c1.979,0,3.91-0.8,5.31-2.2
		C157.627,234.996,158.436,233.066,158.436,231.096z"/>
	<path d="M161.087,248.106c-1.98,0-3.91,0.8-5.311,2.2c-1.39,1.4-2.189,3.33-2.189,5.3c0,1.98,0.8,3.91,2.189,5.31
		c1.4,1.39,3.33,2.19,5.311,2.19c1.97,0,3.909-0.8,5.3-2.19c1.399-1.4,2.2-3.34,2.2-5.31c0-1.97-0.801-3.9-2.2-5.3
		C164.986,248.906,163.056,248.106,161.087,248.106z"/>
	<path d="M185.596,258.266c-1.97,0-3.91,0.8-5.3,2.19c-1.4,1.4-2.2,3.33-2.2,5.31c0,1.97,0.8,3.9,2.2,5.3c1.39,1.4,3.33,2.2,5.3,2.2
		s3.91-0.8,5.3-2.2c1.4-1.4,2.2-3.33,2.2-5.3c0-1.98-0.8-3.91-2.2-5.31C189.507,259.066,187.566,258.266,185.596,258.266z"/>
	<path d="M210.106,248.106c-1.97,0-3.9,0.8-5.3,2.2c-1.4,1.39-2.2,3.33-2.2,5.3c0,1.98,0.8,3.91,2.2,5.31
		c1.39,1.39,3.33,2.19,5.3,2.19c1.98,0,3.91-0.8,5.3-2.19c1.4-1.4,2.2-3.33,2.2-5.31c0-1.97-0.8-3.91-2.2-5.3
		C214.016,248.906,212.087,248.106,210.106,248.106z"/>
	<path d="M212.766,231.096c0,1.98,0.8,3.91,2.189,5.3c1.4,1.4,3.33,2.2,5.311,2.2c1.97,0,3.899-0.8,5.3-2.2
		c1.39-1.4,2.2-3.33,2.2-5.3c0-1.97-0.811-3.9-2.2-5.3c-1.4-1.4-3.33-2.2-5.3-2.2c-1.98,0-3.91,0.8-5.311,2.2
		C213.566,227.186,212.766,229.116,212.766,231.096z"/>
	<path d="M210.106,214.086c1.97,0,3.91-0.8,5.3-2.2c1.4-1.4,2.2-3.33,2.2-5.3c0-1.98-0.8-3.91-2.2-5.31
		c-1.39-1.39-3.319-2.19-5.3-2.19c-1.97,0-3.91,0.8-5.3,2.19c-1.4,1.4-2.2,3.33-2.2,5.31c0,1.97,0.8,3.9,2.2,5.3
		C206.206,213.286,208.136,214.086,210.106,214.086z"/>
</g>
<g>
</g>
<g>
</g>
<g>
</g>
<g>
</g>
<g>
</g>
<g>
</g>
<g>
</g>
<g>
</g>
<g>
</g>
<g>
</g>
<g>
</g>
<g>
</g>
<g>
</g>
<g>
</g>
<g>
</g>
</svg>
