<?xml version="1.0" encoding="iso-8859-1"?>
<!-- Generator: Adobe Illustrator 17.1.0, SVG Export Plug-In . SVG Version: 6.00 Build 0)  -->
<!DOCTYPE svg PUBLIC "-//W3C//DTD SVG 1.1//EN" "http://www.w3.org/Graphics/SVG/1.1/DTD/svg11.dtd">
<svg version="1.1" id="Capa_1" xmlns="http://www.w3.org/2000/svg" xmlns:xlink="http://www.w3.org/1999/xlink" x="0px" y="0px"
	 viewBox="0 0 303.333 303.333" style="enable-background:new 0 0 303.333 303.333;" xml:space="preserve">
<g>
	<path d="M151.666,133.905c9.794,0,17.762,7.968,17.762,17.762c0,4.142,3.357,7.5,7.5,7.5s7.5-3.358,7.5-7.5
		c0-18.065-14.697-32.762-32.762-32.762c-4.142,0-7.5,3.358-7.5,7.5S147.524,133.905,151.666,133.905z"/>
	<path d="M151.666,37.794c9.794,0,17.762,7.968,17.762,17.761c0,4.142,3.357,7.5,7.5,7.5s7.5-3.358,7.5-7.5
		c0-18.064-14.697-32.761-32.762-32.761c-4.142,0-7.5,3.358-7.5,7.5S147.524,37.794,151.666,37.794z"/>
	<path d="M282.507,192.222h-50.226c10.481-7.272,19.351-16.949,25.72-28.521l31.077-56.474c1.278-2.323,1.234-5.149-0.115-7.432
		c-1.35-2.283-3.804-3.684-6.456-3.684h-50.226C242.762,88.839,251.632,79.162,258,67.59l31.077-56.474
		c1.279-2.323,1.235-5.149-0.114-7.432C287.614,1.4,285.159,0,282.507,0H20.826c-2.652,0-5.107,1.4-6.457,3.684
		c-1.349,2.283-1.393,5.109-0.114,7.432L45.332,67.59C51.7,79.162,60.57,88.839,71.052,96.111H20.826c-4.142,0-7.5,3.358-7.5,7.5
		s3.358,7.5,7.5,7.5h93.157c-10.886,10.122-17.714,24.553-17.714,40.556c0,15.898,6.741,30.243,17.503,40.355
		c-23.135-1.739-44.001-15.023-55.298-35.552c-1.997-3.628-6.558-4.951-10.187-2.955c-3.629,1.997-4.952,6.558-2.955,10.187
		c6.369,11.573,15.239,21.25,25.72,28.521H20.826c-2.652,0-5.107,1.4-6.457,3.684c-1.349,2.283-1.393,5.109-0.114,7.432
		l31.077,56.474c14.772,26.845,42.984,43.521,73.625,43.521h65.419c30.641,0,58.852-16.676,73.624-43.521l31.077-56.474
		c1.279-2.323,1.235-5.149-0.114-7.432C287.614,193.623,285.159,192.222,282.507,192.222z M244.86,156.469
		c-11.298,20.53-32.164,33.814-55.299,35.552c10.762-10.112,17.503-24.457,17.503-40.355c0-16.002-6.828-30.433-17.714-40.556h80.47
		L244.86,156.469z M244.86,60.358c-11.298,20.529-32.164,33.813-55.299,35.552c10.762-10.112,17.503-24.457,17.503-40.355
		c0-16.002-6.828-30.433-17.714-40.555h80.47L244.86,60.358z M58.473,60.358L33.513,15h80.469
		c-10.886,10.122-17.714,24.553-17.714,40.555c0,4.142,3.358,7.5,7.5,7.5s7.5-3.358,7.5-7.5c0-22.275,18.123-40.397,40.398-40.397
		s40.397,18.122,40.397,40.397s-18.122,40.398-40.397,40.398c-9.984,0-19.569-3.671-26.987-10.336
		c-3.082-2.768-7.823-2.514-10.592,0.566c-2.501,2.784-2.527,6.918-0.238,9.733C90.683,94.202,69.783,80.91,58.473,60.358z
		 M111.268,151.667c0-22.275,18.123-40.398,40.398-40.398s40.397,18.123,40.397,40.398s-18.122,40.398-40.397,40.398
		S111.268,173.942,111.268,151.667z M58.473,252.581l-24.96-45.358h80.602c-10.964,10.134-17.847,24.579-17.847,40.556
		c0,15.898,6.741,30.242,17.503,40.354C90.636,286.393,69.771,273.109,58.473,252.581z M244.859,252.581
		c-11.114,20.195-31.487,33.377-54.172,35.456c1.381-1.255,2.704-2.573,3.949-3.962c9.457-10.555,13.855-23.737,12.383-37.117
		c-0.454-4.117-4.153-7.092-8.275-6.635c-4.117,0.453-7.088,4.158-6.635,8.275c1,9.085-2.07,18.13-8.645,25.467
		c-7.916,8.835-19.804,14.11-31.798,14.11c-22.275,0-40.398-18.122-40.398-40.397c0-22.138,18.143-40.261,40.444-40.398
		c10.607-0.047,20.044,3.907,27.342,11.489c2.873,2.984,7.621,3.075,10.605,0.201c2.983-2.873,3.073-7.621,0.201-10.604
		c-0.411-0.426-0.836-0.833-1.258-1.243h81.216L244.859,252.581z"/>
	<path d="M151.666,213.8c-4.142,0-7.5,3.358-7.5,7.5s3.358,7.5,7.5,7.5c10.464,0,18.978,8.513,18.978,18.978
		c0,4.142,3.357,7.5,7.5,7.5s7.5-3.358,7.5-7.5C185.644,229.042,170.402,213.8,151.666,213.8z"/>
</g>
<g>
</g>
<g>
</g>
<g>
</g>
<g>
</g>
<g>
</g>
<g>
</g>
<g>
</g>
<g>
</g>
<g>
</g>
<g>
</g>
<g>
</g>
<g>
</g>
<g>
</g>
<g>
</g>
<g>
</g>
</svg>
