<?xml version="1.0" encoding="iso-8859-1"?>
<!-- Generator: Adobe Illustrator 17.1.0, SVG Export Plug-In . SVG Version: 6.00 Build 0)  -->
<!DOCTYPE svg PUBLIC "-//W3C//DTD SVG 1.1//EN" "http://www.w3.org/Graphics/SVG/1.1/DTD/svg11.dtd">
<svg version="1.1" id="Capa_1" xmlns="http://www.w3.org/2000/svg" xmlns:xlink="http://www.w3.org/1999/xlink" x="0px" y="0px"
	 viewBox="0 0 399.736 399.736" style="enable-background:new 0 0 399.736 399.736;" xml:space="preserve">
<g>
	<path d="M393.758,199.724l-43.354-8.979l-50.331-76.259c-1.389-2.104-3.74-3.369-6.26-3.369H193.87c-4.143,0-7.5,3.357-7.5,7.5
		s3.357,7.5,7.5,7.5h30.719v119.752c0,4.143,3.357,7.5,7.5,7.5s7.5-3.357,7.5-7.5V126.116h50.188l49.813,75.475
		c1.093,1.656,2.797,2.811,4.738,3.213l40.407,8.369v57.285H73.964v-36.253c0-4.143-3.357-7.5-7.5-7.5s-7.5,3.357-7.5,7.5v43.753
		v49.365c0,4.143,3.357,7.5,7.5,7.5h25.404c4.143,0,7.5-3.357,7.5-7.5s-3.357-7.5-7.5-7.5H73.964v-34.365h310.772v34.365h-38.618
		c-3.412-14.771-16.664-25.818-32.457-25.818s-29.044,11.048-32.457,25.818H178.462c-3.412-14.771-16.664-25.818-32.457-25.818
		c-18.372,0-33.318,14.946-33.318,33.318s14.946,33.318,33.318,33.318c15.793,0,29.044-11.048,32.457-25.818h102.744
		c3.412,14.771,16.664,25.818,32.457,25.818s29.044-11.048,32.457-25.818h46.118c4.143,0,7.5-3.357,7.5-7.5v-49.365v-70.891
		C399.736,203.512,397.239,200.444,393.758,199.724z M146.005,345.642c-10.101,0-18.318-8.218-18.318-18.318
		s8.218-18.318,18.318-18.318s18.318,8.218,18.318,18.318S156.105,345.642,146.005,345.642z M313.662,345.642
		c-10.101,0-18.318-8.218-18.318-18.318s8.218-18.318,18.318-18.318s18.318,8.218,18.318,18.318S323.763,345.642,313.662,345.642z"
		/>
	<path d="M174.685,126.437c0-48.16-39.182-87.342-87.343-87.342C39.182,39.095,0,78.276,0,126.437
		c0,48.161,39.182,87.343,87.342,87.343C135.503,213.779,174.685,174.598,174.685,126.437z M15,126.437
		c0-39.89,32.452-72.342,72.342-72.342s72.343,32.452,72.343,72.342s-32.453,72.343-72.343,72.343S15,166.326,15,126.437z"/>
	<path d="M108.785,155.38c1.919,0,3.839-0.732,5.304-2.196c2.929-2.93,2.929-7.678,0-10.607L94.842,123.33V76.175
		c0-4.143-3.357-7.5-7.5-7.5s-7.5,3.357-7.5,7.5v50.262c0,1.989,0.79,3.896,2.196,5.304l21.443,21.443
		C104.946,154.647,106.866,155.38,108.785,155.38z"/>
</g>
<g>
</g>
<g>
</g>
<g>
</g>
<g>
</g>
<g>
</g>
<g>
</g>
<g>
</g>
<g>
</g>
<g>
</g>
<g>
</g>
<g>
</g>
<g>
</g>
<g>
</g>
<g>
</g>
<g>
</g>
</svg>
