<?xml version="1.0" encoding="iso-8859-1"?>
<!-- Generator: Adobe Illustrator 17.1.0, SVG Export Plug-In . SVG Version: 6.00 Build 0)  -->
<!DOCTYPE svg PUBLIC "-//W3C//DTD SVG 1.1//EN" "http://www.w3.org/Graphics/SVG/1.1/DTD/svg11.dtd">
<svg version="1.1" id="Capa_1" xmlns="http://www.w3.org/2000/svg" xmlns:xlink="http://www.w3.org/1999/xlink" x="0px" y="0px"
	 viewBox="0 0 359.771 359.771" style="enable-background:new 0 0 359.771 359.771;" xml:space="preserve">
<g>
	<path d="M320.119,62.597H148.944c-21.864,0-39.651,17.787-39.651,39.651v34.629H65.955c-14.291,0-27.303,7.26-34.809,19.42
		L1.118,204.949C0.387,206.133,0,207.497,0,208.888v56.714c0,4.143,3.358,7.5,7.5,7.5h26.414
		c3.008,13.747,15.273,24.071,29.909,24.071s26.901-10.324,29.909-24.071h23.06h22.093c4.142,0,7.5-3.357,7.5-7.5
		s-3.358-7.5-7.5-7.5h-14.593V144.377v-42.129c0-13.593,11.059-24.651,24.651-24.651h171.175c13.593,0,24.651,11.059,24.651,24.651
		v156.323H229.661c-4.142,0-7.5,3.357-7.5,7.5s3.358,7.5,7.5,7.5h36.65c3.183,13.511,15.331,23.602,29.8,23.602
		c6.628,0,12.938-2.085,18.247-6.028c3.325-2.47,4.018-7.168,1.548-10.493c-2.471-3.326-7.169-4.018-10.493-1.548
		c-2.703,2.008-5.919,3.069-9.302,3.069c-6.088,0-11.36-3.508-13.936-8.602h70.095c4.142,0,7.5-3.357,7.5-7.5V102.249
		C359.771,80.384,341.983,62.597,320.119,62.597z M15,211.016l24.221-39.242h28.955c8.042,0,14.583,6.542,14.583,14.583v0.446
		c0,8.042-6.542,14.584-14.583,14.584h-28.29c-4.142,0-7.5,3.357-7.5,7.5s3.358,7.5,7.5,7.5h28.29
		c16.313,0,29.583-13.271,29.583-29.584v-0.446c0-16.313-13.271-29.583-29.583-29.583H50.771c4.336-3.144,9.604-4.896,15.183-4.896
		h43.338v106.225H93.25c-3.678-12.787-15.473-22.172-29.426-22.172s-25.749,9.385-29.426,22.172H15V211.016z M63.823,282.173
		c-8.614,0-15.622-7.008-15.622-15.621c0-8.614,7.008-15.622,15.622-15.622s15.622,7.008,15.622,15.622
		C79.445,275.166,72.437,282.173,63.823,282.173z"/>
	<path d="M155.781,128.917h157.5c4.142,0,7.5-3.357,7.5-7.5s-3.358-7.5-7.5-7.5h-157.5c-4.142,0-7.5,3.357-7.5,7.5
		S151.639,128.917,155.781,128.917z"/>
	<path d="M155.781,175.584h157.5c4.142,0,7.5-3.357,7.5-7.5s-3.358-7.5-7.5-7.5h-157.5c-4.142,0-7.5,3.357-7.5,7.5
		S151.639,175.584,155.781,175.584z"/>
	<path d="M313.281,222.251c4.142,0,7.5-3.357,7.5-7.5s-3.358-7.5-7.5-7.5h-157.5c-4.142,0-7.5,3.357-7.5,7.5s3.358,7.5,7.5,7.5
		H313.281z"/>
	<path d="M184.325,235.93c-16.885,0-30.622,13.737-30.622,30.622s13.737,30.621,30.622,30.621s30.622-13.736,30.622-30.621
		S201.209,235.93,184.325,235.93z M184.325,282.173c-8.614,0-15.622-7.008-15.622-15.621c0-8.614,7.008-15.622,15.622-15.622
		s15.622,7.008,15.622,15.622C199.946,275.166,192.938,282.173,184.325,282.173z"/>
</g>
<g>
</g>
<g>
</g>
<g>
</g>
<g>
</g>
<g>
</g>
<g>
</g>
<g>
</g>
<g>
</g>
<g>
</g>
<g>
</g>
<g>
</g>
<g>
</g>
<g>
</g>
<g>
</g>
<g>
</g>
</svg>
