<?xml version="1.0" encoding="iso-8859-1"?>
<!-- Generator: Adobe Illustrator 17.1.0, SVG Export Plug-In . SVG Version: 6.00 Build 0)  -->
<!DOCTYPE svg PUBLIC "-//W3C//DTD SVG 1.1//EN" "http://www.w3.org/Graphics/SVG/1.1/DTD/svg11.dtd">
<svg version="1.1" id="Capa_1" xmlns="http://www.w3.org/2000/svg" xmlns:xlink="http://www.w3.org/1999/xlink" x="0px" y="0px"
	 viewBox="0 0 378.56 378.56" style="enable-background:new 0 0 378.56 378.56;" xml:space="preserve">
<g>
	<path d="M209.877,196.541c0-55.341-43.063-100.809-97.439-104.668V74.137c0-4.143-3.358-7.5-7.5-7.5s-7.5,3.357-7.5,7.5v17.736
		C43.063,95.732,0,141.199,0,196.541c0,0.872,0.156,1.705,0.43,2.484C0.15,200.922,0,202.863,0,204.837c0,4.143,3.358,7.5,7.5,7.5
		s7.5-3.357,7.5-7.5c0-13.604,11.067-24.67,24.67-24.67h0.65c13.603,0,24.67,11.066,24.67,24.67c0,4.143,3.358,7.5,7.5,7.5
		s7.5-3.357,7.5-7.5c0-13.604,11.067-24.67,24.67-24.67h0.65c13.603,0,24.67,11.066,24.67,24.67c0,4.143,3.358,7.5,7.5,7.5
		s7.5-3.357,7.5-7.5c0-21.874-17.796-39.67-39.67-39.67h-0.65c-13.229,0-24.959,6.516-32.17,16.5
		c-7.211-9.984-18.941-16.5-32.17-16.5h-0.65c-7.724,0-14.935,2.227-21.038,6.062c10.96-37.307,45.5-64.627,86.307-64.627
		c40.78,0,75.302,27.284,86.285,64.554c-6.079-3.79-13.248-5.989-20.925-5.989h-0.65c-4.142,0-7.5,3.357-7.5,7.5s3.358,7.5,7.5,7.5
		h0.65c13.603,0,24.67,11.066,24.67,24.67c0,4.143,3.358,7.5,7.5,7.5s7.5-3.357,7.5-7.5c0-2.039-0.155-4.042-0.454-5.999
		C209.749,198.114,209.877,197.343,209.877,196.541z"/>
	<path d="M104.938,191.78c-4.142,0-7.5,3.357-7.5,7.5v83.396c0,7.855-6.391,14.247-14.247,14.247s-14.247-6.392-14.247-14.247
		c0-4.143-3.358-7.5-7.5-7.5s-7.5,3.357-7.5,7.5c0,16.127,13.12,29.247,29.247,29.247s29.247-13.12,29.247-29.247V199.28
		C112.438,195.137,109.081,191.78,104.938,191.78z"/>
	<path d="M371.06,108.014H224.185c-4.142,0-7.5,3.357-7.5,7.5c0,56.691,36.309,102.813,80.938,102.813
		c29.897,0,57.234-20.74,71.342-54.128c1.612-3.815-0.174-8.215-3.989-9.827c-3.814-1.614-8.216,0.174-9.828,3.989
		c-11.72,27.735-33.762,44.966-57.525,44.966c-34.461,0-62.832-35.391-65.699-80.313H371.06c4.142,0,7.5-3.357,7.5-7.5
		S375.202,108.014,371.06,108.014z"/>
	<path d="M327.935,296.922h-22.813V237.28c0-4.143-3.358-7.5-7.5-7.5s-7.5,3.357-7.5,7.5v59.643H267.31c-4.142,0-7.5,3.357-7.5,7.5
		s3.358,7.5,7.5,7.5h60.625c4.142,0,7.5-3.357,7.5-7.5S332.077,296.922,327.935,296.922z"/>
</g>
<g>
</g>
<g>
</g>
<g>
</g>
<g>
</g>
<g>
</g>
<g>
</g>
<g>
</g>
<g>
</g>
<g>
</g>
<g>
</g>
<g>
</g>
<g>
</g>
<g>
</g>
<g>
</g>
<g>
</g>
</svg>
