<?xml version="1.0" encoding="iso-8859-1"?>
<!-- Generator: Adobe Illustrator 17.1.0, SVG Export Plug-In . SVG Version: 6.00 Build 0)  -->
<!DOCTYPE svg PUBLIC "-//W3C//DTD SVG 1.1//EN" "http://www.w3.org/Graphics/SVG/1.1/DTD/svg11.dtd">
<svg version="1.1" id="Capa_1" xmlns="http://www.w3.org/2000/svg" xmlns:xlink="http://www.w3.org/1999/xlink" x="0px" y="0px"
	 viewBox="0 0 277.478 277.478" style="enable-background:new 0 0 277.478 277.478;" xml:space="preserve">
<g>
	<path d="M16.081,69.535l43.928-43.928v182.332c0,4.142,3.357,7.5,7.5,7.5s7.5-3.358,7.5-7.5V25.606l43.928,43.928
		c1.465,1.464,3.385,2.197,5.304,2.197s3.839-0.732,5.304-2.197c2.929-2.929,2.929-7.678,0-10.606L72.812,2.197
		c-0.01-0.01-0.021-0.018-0.03-0.027c-0.166-0.164-0.339-0.321-0.52-0.47c-0.085-0.069-0.174-0.13-0.261-0.195
		c-0.109-0.082-0.216-0.166-0.33-0.242c-0.103-0.069-0.21-0.128-0.315-0.192c-0.104-0.063-0.207-0.128-0.315-0.186
		c-0.107-0.057-0.217-0.105-0.326-0.157c-0.113-0.053-0.224-0.11-0.34-0.158c-0.105-0.044-0.213-0.078-0.32-0.117
		c-0.124-0.045-0.246-0.092-0.373-0.13c-0.106-0.032-0.214-0.055-0.32-0.082c-0.13-0.033-0.259-0.069-0.391-0.095
		c-0.121-0.024-0.243-0.038-0.365-0.056c-0.12-0.018-0.239-0.04-0.361-0.052c-0.216-0.021-0.432-0.03-0.648-0.033
		C67.567,0.004,67.538,0,67.508,0s-0.059,0.004-0.089,0.005c-0.216,0.003-0.433,0.012-0.648,0.033
		c-0.122,0.012-0.241,0.034-0.361,0.052c-0.122,0.018-0.244,0.032-0.365,0.056c-0.133,0.026-0.261,0.062-0.391,0.095
		c-0.107,0.027-0.215,0.05-0.32,0.082c-0.127,0.038-0.249,0.086-0.373,0.13c-0.107,0.039-0.215,0.074-0.321,0.117
		c-0.115,0.048-0.226,0.104-0.339,0.157c-0.109,0.052-0.22,0.1-0.327,0.157c-0.108,0.058-0.21,0.123-0.315,0.186
		c-0.105,0.063-0.212,0.123-0.315,0.192c-0.114,0.076-0.221,0.161-0.33,0.242C62.928,1.57,62.839,1.63,62.755,1.7
		c-0.181,0.148-0.354,0.305-0.52,0.47c-0.01,0.01-0.021,0.018-0.03,0.027L5.473,58.928c-2.929,2.929-2.929,7.678,0,10.606
		C8.403,72.463,13.151,72.463,16.081,69.535z"/>
	<path d="M158.542,69.535l43.928-43.928v182.332c0,4.142,3.357,7.5,7.5,7.5s7.5-3.358,7.5-7.5V25.606l43.928,43.928
		c1.465,1.464,3.385,2.197,5.304,2.197s3.839-0.732,5.304-2.197c2.929-2.929,2.929-7.678,0-10.606L215.273,2.197
		c-0.01-0.01-0.021-0.018-0.03-0.027c-0.166-0.164-0.339-0.321-0.52-0.47c-0.085-0.069-0.174-0.13-0.261-0.195
		c-0.109-0.082-0.216-0.166-0.33-0.242c-0.103-0.069-0.21-0.128-0.315-0.192c-0.104-0.063-0.207-0.128-0.315-0.186
		c-0.107-0.057-0.217-0.105-0.326-0.157c-0.113-0.053-0.224-0.11-0.34-0.158c-0.105-0.044-0.213-0.078-0.32-0.117
		c-0.124-0.045-0.246-0.092-0.373-0.13c-0.106-0.032-0.214-0.055-0.321-0.082c-0.13-0.033-0.259-0.069-0.391-0.095
		c-0.121-0.024-0.243-0.038-0.365-0.056c-0.12-0.018-0.239-0.04-0.361-0.052c-0.216-0.021-0.432-0.03-0.648-0.033
		c-0.03,0-0.059-0.005-0.089-0.005s-0.059,0.004-0.089,0.005c-0.216,0.003-0.433,0.012-0.648,0.033
		c-0.122,0.012-0.241,0.034-0.361,0.052c-0.122,0.018-0.244,0.032-0.365,0.056c-0.133,0.026-0.261,0.062-0.391,0.095
		c-0.107,0.027-0.215,0.05-0.321,0.082c-0.126,0.038-0.249,0.086-0.373,0.13c-0.107,0.039-0.215,0.074-0.321,0.117
		c-0.115,0.048-0.226,0.104-0.339,0.157c-0.109,0.052-0.22,0.1-0.327,0.157c-0.108,0.058-0.21,0.123-0.315,0.186
		c-0.105,0.063-0.212,0.123-0.315,0.192c-0.114,0.076-0.22,0.161-0.33,0.242C205.389,1.57,205.3,1.63,205.215,1.7
		c-0.181,0.148-0.354,0.305-0.52,0.47c-0.01,0.01-0.021,0.018-0.03,0.027l-56.731,56.731c-2.929,2.929-2.929,7.678,0,10.606
		C150.864,72.463,155.612,72.463,158.542,69.535z"/>
	<path d="M266.701,228.122H10.777c-4.143,0-7.5,3.358-7.5,7.5s3.357,7.5,7.5,7.5h255.924c4.143,0,7.5-3.358,7.5-7.5
		S270.843,228.122,266.701,228.122z"/>
	<path d="M266.701,262.478H10.777c-4.143,0-7.5,3.358-7.5,7.5s3.357,7.5,7.5,7.5h255.924c4.143,0,7.5-3.358,7.5-7.5
		S270.843,262.478,266.701,262.478z"/>
</g>
<g>
</g>
<g>
</g>
<g>
</g>
<g>
</g>
<g>
</g>
<g>
</g>
<g>
</g>
<g>
</g>
<g>
</g>
<g>
</g>
<g>
</g>
<g>
</g>
<g>
</g>
<g>
</g>
<g>
</g>
</svg>
