<?xml version="1.0" encoding="iso-8859-1"?>
<!-- Generator: Adobe Illustrator 17.1.0, SVG Export Plug-In . SVG Version: 6.00 Build 0)  -->
<!DOCTYPE svg PUBLIC "-//W3C//DTD SVG 1.1//EN" "http://www.w3.org/Graphics/SVG/1.1/DTD/svg11.dtd">
<svg version="1.1" id="Capa_1" xmlns="http://www.w3.org/2000/svg" xmlns:xlink="http://www.w3.org/1999/xlink" x="0px" y="0px"
	 viewBox="0 0 363.551 363.551" style="enable-background:new 0 0 363.551 363.551;" xml:space="preserve">
<g>
	<path d="M289.522,122.964l-80.494-24.956V52.55H239.9c4.143,0,7.5-3.357,7.5-7.5s-3.357-7.5-7.5-7.5h-38.372h-39.506H131.15V15
		H232.4v6.775c0,4.143,3.357,7.5,7.5,7.5s7.5-3.357,7.5-7.5V7.5c0-4.143-3.357-7.5-7.5-7.5H123.65c-4.143,0-7.5,3.357-7.5,7.5v37.55
		c0,4.143,3.357,7.5,7.5,7.5h30.872v15.226c0,4.143,3.357,7.5,7.5,7.5s7.5-3.357,7.5-7.5V52.55h24.506v50.985
		c0,3.287,2.14,6.19,5.279,7.164l80.494,24.956v212.896H83.749V135.655l80.494-24.956c3.957-1.228,6.17-5.429,4.943-9.385
		s-5.429-6.165-9.385-4.943l-85.773,26.593c-3.14,0.974-5.279,3.878-5.279,7.164v225.923c0,4.143,3.357,7.5,7.5,7.5h211.053
		c4.143,0,7.5-3.357,7.5-7.5V130.128C294.802,126.842,292.662,123.938,289.522,122.964z"/>
	<path d="M210.313,191.777c4.143,0,7.5-3.357,7.5-7.5s-3.357-7.5-7.5-7.5h-44.256c-4.143,0-7.5,3.357-7.5,7.5v43.081
		c0,2.515,1.26,4.862,3.356,6.251c2.096,1.391,4.75,1.639,7.064,0.656c2.64-1.115,5.448-1.682,8.347-1.682
		c11.826,0,21.447,9.621,21.447,21.446c0,11.826-9.621,21.447-21.447,21.447c-7.182,0-13.855-3.571-17.852-9.555
		c-2.3-3.443-6.958-4.373-10.402-2.07c-3.444,2.301-4.371,6.958-2.07,10.402c6.785,10.158,18.121,16.223,30.324,16.223
		c20.097,0,36.447-16.351,36.447-36.447s-16.351-36.446-36.447-36.446c-1.267,0-2.522,0.063-3.768,0.191v-25.998H210.313z"/>
</g>
<g>
</g>
<g>
</g>
<g>
</g>
<g>
</g>
<g>
</g>
<g>
</g>
<g>
</g>
<g>
</g>
<g>
</g>
<g>
</g>
<g>
</g>
<g>
</g>
<g>
</g>
<g>
</g>
<g>
</g>
</svg>
