<?xml version="1.0" encoding="iso-8859-1"?>
<!-- Generator: Adobe Illustrator 17.1.0, SVG Export Plug-In . SVG Version: 6.00 Build 0)  -->
<!DOCTYPE svg PUBLIC "-//W3C//DTD SVG 1.1//EN" "http://www.w3.org/Graphics/SVG/1.1/DTD/svg11.dtd">
<svg version="1.1" id="Capa_1" xmlns="http://www.w3.org/2000/svg" xmlns:xlink="http://www.w3.org/1999/xlink" x="0px" y="0px"
	 viewBox="0 0 321.25 321.25" style="enable-background:new 0 0 321.25 321.25;" xml:space="preserve">
<path d="M160.625,0C72.056,0,0,72.056,0,160.625S72.056,321.25,160.625,321.25S321.25,249.194,321.25,160.625S249.194,0,160.625,0z
	 M112.909,275.367c-5.427-7.87-10.204-16.829-14.269-26.638c16.972-7.096,35.431-11.235,54.484-12.097v69.426
	c-34.23-1.745-65.372-15.372-89.389-36.819c6.682-5.294,13.837-9.988,21.371-14.054c4.406,10.528,9.579,20.179,15.453,28.697
	c1.455,2.11,3.798,3.243,6.181,3.243c1.468,0,2.951-0.43,4.251-1.326C114.403,283.448,115.261,278.777,112.909,275.367z
	 M124.46,76.429c-8.245-2.082-16.251-4.831-23.934-8.168c0.499-1.12,0.994-2.246,1.512-3.341
	c12.012-25.359,28.293-42.379,45.846-47.926c1.732-0.547,3.482-0.976,5.24-1.299v137.431h-70.51
	c0.712-25.253,5.008-49.67,12.398-70.909c8.287,3.571,16.907,6.518,25.775,8.757c0.616,0.155,1.233,0.23,1.841,0.23
	c3.354,0,6.408-2.266,7.267-5.666C130.91,81.521,128.477,77.443,124.46,76.429z M87.068,61.621
	c-6.861-3.823-13.375-8.155-19.457-12.957c13.034-10.846,27.984-19.46,44.26-25.26c-8.835,9.283-16.765,21.11-23.388,35.093
	C87.998,59.522,87.538,60.578,87.068,61.621z M153.125,168.125v53.49c-20.823,0.864-41.027,5.324-59.644,13.02
	c-6.449-20.037-10.215-42.749-10.872-66.509H153.125z M56.482,58.949c7.713,6.281,16.074,11.862,24.942,16.673
	c-8.287,23.203-13.079,49.947-13.817,77.503H15.191C17.054,116.572,32.466,83.542,56.482,58.949z M15.191,168.125h52.416
	c0.686,25.984,4.923,50.908,12.212,72.891c-9.515,4.982-18.502,10.87-26.813,17.611C30.982,234.464,16.963,202.885,15.191,168.125z
	 M209.529,297.793c6.587-6.965,12.695-15.407,18.188-25.232c16.788-30.021,26.033-69.774,26.033-111.936
	c0-19.654-1.996-38.751-5.927-56.872l24.252,14.992c3.523,2.18,8.146,1.088,10.323-2.436c2.178-3.523,1.087-8.146-2.436-10.323
	l-39.498-24.417c-3.523-2.179-8.145-1.087-10.323,2.436l-24.417,39.498c-2.178,3.523-1.087,8.146,2.436,10.323
	c1.229,0.76,2.591,1.122,3.937,1.122c2.513,0,4.968-1.263,6.387-3.557l14.792-23.928c3.629,16.921,5.474,34.768,5.474,53.163
	c0,39.641-8.568,76.794-24.125,104.615c-12.931,23.124-29.218,37.164-46.5,40.325V15.191
	c76.826,3.917,138.125,67.651,138.125,145.434C306.25,223.774,265.843,277.655,209.529,297.793z"/>
<g>
</g>
<g>
</g>
<g>
</g>
<g>
</g>
<g>
</g>
<g>
</g>
<g>
</g>
<g>
</g>
<g>
</g>
<g>
</g>
<g>
</g>
<g>
</g>
<g>
</g>
<g>
</g>
<g>
</g>
</svg>
