<?xml version="1.0" encoding="iso-8859-1"?>
<!-- Generator: Adobe Illustrator 17.1.0, SVG Export Plug-In . SVG Version: 6.00 Build 0)  -->
<!DOCTYPE svg PUBLIC "-//W3C//DTD SVG 1.1//EN" "http://www.w3.org/Graphics/SVG/1.1/DTD/svg11.dtd">
<svg version="1.1" id="Capa_1" xmlns="http://www.w3.org/2000/svg" xmlns:xlink="http://www.w3.org/1999/xlink" x="0px" y="0px"
	 viewBox="0 0 368.436 368.436" style="enable-background:new 0 0 368.436 368.436;" xml:space="preserve">
<g>
	<path d="M326.764,133.708c-11.442-21.969-28.104-41.298-48.186-55.898c-3.348-2.434-8.04-1.694-10.477,1.656
		c-2.436,3.35-1.694,8.041,1.656,10.477c35.591,25.876,57.602,66.708,59.877,110.367h-72.163
		c-0.373-18.475-2.12-36.421-5.215-53.445c-0.74-4.076-4.653-6.779-8.721-6.037c-4.075,0.741-6.778,4.646-6.037,8.721
		c2.937,16.148,4.604,33.191,4.973,50.762H125.965c0.375-17.892,2.096-35.227,5.132-51.629c0.754-4.073-1.938-7.986-6.01-8.739
		c-4.076-0.754-7.986,1.937-8.74,6.01c-3.2,17.292-5.002,35.546-5.381,54.359H38.801c2.348-45.864,26.115-87.943,64.614-113.669
		c3.444-2.301,4.37-6.959,2.068-10.403c-2.301-3.444-6.958-4.37-10.402-2.069c-44.763,29.913-71.487,79.872-71.487,133.641
		c0,88.569,72.056,160.625,160.625,160.625s160.625-72.056,160.625-160.625C344.843,182.04,338.591,156.416,326.764,133.708z
		 M245.938,295.764c12.672,5.272,24.505,12.203,35.167,20.663c-17.224,15.381-38.112,26.737-61.178,32.573
		c6.547-7.797,12.523-17.835,17.732-29.952C240.766,311.823,243.526,304.02,245.938,295.764z M223.879,313.124
		c-11.015,25.619-25.471,40.312-39.661,40.312s-28.646-14.693-39.661-40.312c-2.979-6.93-5.625-14.439-7.923-22.414
		c15.143-4.643,31.19-7.066,47.584-7.066c16.455,0,32.485,2.415,47.593,7.04C229.51,298.669,226.862,306.186,223.879,313.124z
		 M130.776,319.048c5.209,12.116,11.185,22.155,17.733,29.952c-23.067-5.837-43.955-17.193-61.18-32.575
		c10.651-8.438,22.503-15.353,35.179-20.625C124.918,304.043,127.675,311.834,130.776,319.048z M184.218,268.644
		c-17.634,0-34.915,2.574-51.262,7.51c-4.135-18.677-6.54-39.317-6.992-60.843h116.508c-0.451,21.513-2.854,42.142-6.985,60.811
		C219.178,271.206,201.915,268.644,184.218,268.644z M38.784,215.311h72.18c0.471,23.255,3.129,45.621,7.742,65.835
		c-15.253,6.12-29.462,14.409-42.108,24.668C54.574,281.65,40.556,250.07,38.784,215.311z M291.845,305.805
		c-12.663-10.286-26.86-18.574-42.108-24.693c4.608-20.205,7.264-42.559,7.735-65.802h72.18
		C327.88,250.067,313.864,281.643,291.845,305.805z"/>
	<path d="M218.07,60.441c0-17.635-14.348-31.983-31.983-31.983c-4.143,0-7.5,3.358-7.5,7.5s3.357,7.5,7.5,7.5
		c9.364,0,16.983,7.619,16.983,16.983s-7.619,16.983-16.983,16.983c-4.896,0-9.789-2.129-13.09-5.694
		c-2.822-3.049-4.213-6.853-3.915-10.71c0.319-4.13-2.77-7.737-6.899-8.056c-4.124-0.312-7.736,2.77-8.056,6.899
		c-0.624,8.072,2.168,15.905,7.862,22.057c6.18,6.676,14.963,10.504,24.098,10.504C203.723,92.424,218.07,78.076,218.07,60.441z"/>
	<path d="M181.17,177.922c1.407,1.221,3.16,1.836,4.918,1.836c1.618,0,3.24-0.522,4.596-1.574
		c2.28-1.769,55.845-44.161,55.845-117.744C246.528,27.114,219.414,0,186.087,0s-60.44,27.114-60.44,60.441
		C125.646,128.936,178.903,175.955,181.17,177.922z M186.087,15c25.057,0,45.441,20.385,45.441,45.441
		c0,53.625-32.659,89.722-45.215,101.614c-12.509-12.792-45.667-51.439-45.667-101.614C140.646,35.385,161.031,15,186.087,15z"/>
</g>
<g>
</g>
<g>
</g>
<g>
</g>
<g>
</g>
<g>
</g>
<g>
</g>
<g>
</g>
<g>
</g>
<g>
</g>
<g>
</g>
<g>
</g>
<g>
</g>
<g>
</g>
<g>
</g>
<g>
</g>
</svg>
